<svg xmlns="http://www.w3.org/2000/svg" version="1.1" xmlns:xlink="http://www.w3.org/1999/xlink"
    xmlns:svgjs="http://svgjs.com/svgjs" width="512" height="512" x="0" y="0" viewBox="0 0 511 511.99982"
    style="enable-background:new 0 0 512 512" xml:space="preserve" class="">
    <g transform="matrix(1,0,0,1,10,0)">
        <path xmlns="http://www.w3.org/2000/svg"
            d="m245.5 22c-37.710938 0-73.421875 8.527344-105.335938 23.746094l-50.234374 31.980468c-10.402344 8.558594-20.082032 17.964844-28.945313 28.105469l-51.386719 94.828125c-5.921875 21.101563-9.097656 43.347656-9.097656 66.339844 0 111.078125 73.929688 204.875 175.261719 234.914062l127.167969 3.300782c107.597656-25.847656 187.570312-122.683594 187.570312-238.214844 0-135.308594-109.6875-245-245-245zm0 0"
            fill="#3342ae" data-original="#3342ae" class=""></path>
        <path xmlns="http://www.w3.org/2000/svg"
            d="m368.328125 297.53125c0-71.097656-57.636719-128.738281-128.734375-128.738281-71.101562 0-128.738281 57.640625-128.738281 128.738281 0 30.332031 28.042969 80.207031 28.042969 80.207031l36.140624 66.359375c40.6875 20.109375 88.421876 20.109375 129.109376 0l36.140624-66.359375s28.039063-49.875 28.039063-80.207031zm0 0"
            fill="#f6d100" data-original="#f6d100"></path>
        <path xmlns="http://www.w3.org/2000/svg"
            d="m196.105469 394.371094s-21.050781-53.847656-21.050781-86.589844c0-70.191406 36.179687-128.21875 83.179687-137.636719-6.085937-.882812-12.308594-1.351562-18.640625-1.351562-71.101562 0-128.738281 57.640625-128.738281 128.738281 0 30.332031 28.042969 80.207031 28.042969 80.207031l36.140624 66.359375c14.363282 7.097656 29.609376 11.679688 45.109376 13.765625zm0 0"
            fill="#f2ba00" data-original="#f2ba00" class=""></path>
        <path xmlns="http://www.w3.org/2000/svg"
            d="m180.429688 118.625c-7 0-11.960938-2.230469-14.796876-6.667969-6.070312-9.496093.6875-22.761719 21.257813-41.753906.039063-.039063.082031-.074219.125-.109375l6.535156-5.800781c3.417969-3.027344 8.640625-2.714844 11.671875.703125 3.03125 3.414062 2.71875 8.644531-.699218 11.671875l-6.476563 5.742187c-10.511719 9.714844-15.1875 16.222656-16.984375 19.675782.882812-.035157 2.015625-.140626 3.445312-.371094 4.511719-.722656 8.75 2.34375 9.476563 6.851562.722656 4.507813-2.34375 8.753906-6.855469 9.476563-2.40625.386719-4.640625.582031-6.699218.582031zm0 0"
            fill="#a9d8fc" data-original="#a9d8fc"></path>
        <path xmlns="http://www.w3.org/2000/svg"
            d="m277.050781 28.585938c-3.167969 0-6.191406-1.828126-7.5625-4.910157-1.855469-4.171875.023438-9.058593 4.195313-10.917969l6.1875-2.753906c28.066406-12.171875 44.0625-13.203125 50.40625-3.277344 2.460937 3.847657 1.335937 8.964844-2.511719 11.421876-3.476563 2.222656-7.992187 1.519531-10.640625-1.480469-2.570312-.472657-11.667969.269531-30.597656 8.476562l-6.117188 2.722657c-1.09375.488281-2.234375.71875-3.359375.71875zm0 0"
            fill="#a9d8fc" data-original="#a9d8fc"></path>
        <path xmlns="http://www.w3.org/2000/svg"
            d="m60.984375 105.832031c-23.628906 27.03125-41.417969 59.292969-51.386719 94.832031 10.558594 12.144532 26.113282 19.832032 43.472656 19.832032 31.816407 0 57.605469-25.792969 57.605469-57.609375 0-29.128907-21.625-53.195313-49.691406-57.054688zm0 0"
            fill="#31a7ed" data-original="#31a7ed" class=""></path>
        <path xmlns="http://www.w3.org/2000/svg"
            d="m73.402344 293.183594c0 11.488281-9.316406 20.804687-20.804688 20.804687-11.488281 0-20.804687-9.316406-20.804687-20.804687 0-11.488282 9.316406-20.804688 20.804687-20.804688 11.488282 0 20.804688 9.316406 20.804688 20.804688zm0 0"
            fill="#31a7ed" data-original="#31a7ed" class=""></path>
        <path xmlns="http://www.w3.org/2000/svg"
            d="m463.382812 284.773438c0 16.132812-13.078124 29.214843-29.214843 29.214843-16.132813 0-29.210938-13.082031-29.210938-29.214843 0-16.136719 13.078125-29.214844 29.210938-29.214844 16.136719 0 29.214843 13.078125 29.214843 29.214844zm0 0"
            fill="#eb5793" data-original="#eb5793"></path>
        <path xmlns="http://www.w3.org/2000/svg"
            d="m442.792969 296.738281c-11.371094 0-20.589844-9.21875-20.589844-20.589843 0-10.03125 7.175781-18.375 16.671875-20.207032-1.53125-.25-3.101562-.382812-4.707031-.382812-16.132813 0-29.214844 13.078125-29.214844 29.214844 0 16.132812 13.082031 29.210937 29.214844 29.210937 16.136719 0 29.214843-13.078125 29.214843-29.210937 0-1.605469-.132812-3.175782-.382812-4.710938-1.832031 9.5-10.175781 16.675781-20.207031 16.675781zm0 0"
            fill="#e7387f" data-original="#e7387f"></path>
        <path xmlns="http://www.w3.org/2000/svg"
            d="m110.75 85.824219c17.027344 0 30.828125-13.804688 30.828125-30.832031 0-3.21875-.496094-6.328126-1.410156-9.246094-18.078125 8.621094-34.9375 19.386718-50.238281 31.980468 5.484374 5.027344 12.792968 8.097657 20.820312 8.097657zm0 0"
            fill="#9ed369" data-original="#9ed369"></path>
        <path xmlns="http://www.w3.org/2000/svg"
            d="m85.296875 141.644531h-29.890625c-3.539062 0-6.6875 2.253907-7.828125 5.601563l-7.703125 22.589844-7.296875-11.992188c-1.0625-1.75-2.730469-3.003906-4.636719-3.589844-2.742187 5.277344-5.292968 10.664063-7.652344 16.160156h.578126l14.066406 23.117188c1.511718 2.484375 4.199218 3.972656 7.0625 3.972656.300781 0 .601562-.015625.902344-.050781 3.191406-.347656 5.890624-2.511719 6.929687-5.550781l11.496094-33.71875h23.972656c4.566406 0 8.269531-3.699219 8.269531-8.269532 0-4.566406-3.703125-8.269531-8.269531-8.269531zm0 0"
            fill="#91d1f9" data-original="#91d1f9" class=""></path>
        <path xmlns="http://www.w3.org/2000/svg"
            d="m306.332031 63.691406c0 31.8125-25.789062 57.605469-57.605469 57.605469-31.816406 0-57.609374-25.792969-57.609374-57.605469 0-31.816406 25.792968-57.609375 57.609374-57.609375 31.816407 0 57.605469 25.792969 57.605469 57.609375zm0 0"
            fill="#eea200" data-original="#eea200"></path>
        <path xmlns="http://www.w3.org/2000/svg"
            d="m275.6875 94.425781c-28.535156 0-51.667969-23.132812-51.667969-51.664062 0-13.871094 5.476563-26.457031 14.375-35.738281-26.882812 4.871093-47.277343 28.378906-47.277343 56.667968 0 31.8125 25.792968 57.605469 57.609374 57.605469 23.21875 0 43.214844-13.742187 52.335938-33.535156-7.496094 4.234375-16.152344 6.664062-25.375 6.664062zm0 0"
            fill="#ed8700" data-original="#ed8700"></path>
        <path xmlns="http://www.w3.org/2000/svg"
            d="m282.367188 16.957031c-11.316407 10.457031-26.5 22.144531-43.949219 33.40625-16.453125 10.621094-32.425781 19.25-46.09375 25.234375 5.507812 26.207032 28.8125 45.828125 56.632812 45.703125 31.816407-.140625 57.492188-26.046875 57.351563-57.863281-.085938-19.152344-9.515625-36.070312-23.941406-46.480469zm0 0"
            fill="#f2ba00" data-original="#f2ba00" class=""></path>
        <path xmlns="http://www.w3.org/2000/svg"
            d="m275.6875 94.425781c-23.269531 0-42.9375-15.382812-49.410156-36.53125-12.101563 7.210938-23.675782 13.207031-33.953125 17.703125 5.507812 26.207032 28.8125 45.828125 56.632812 45.703125 23.125-.101562 42.992188-13.820312 52.078125-33.523437-7.492187 4.226562-16.132812 6.648437-25.347656 6.648437zm0 0"
            fill="#eea200" data-original="#eea200"></path>
        <path xmlns="http://www.w3.org/2000/svg"
            d="m258.707031 76.164062c-18.738281 11.976563-36.84375 21.390626-51.640625 27.289063 10.488282 10.988281 25.269532 17.84375 41.660156 17.84375 31.816407 0 57.605469-25.792969 57.605469-57.605469 0-7.230468-1.339843-14.140625-3.769531-20.511718-11.339844 10.347656-26.484375 21.882812-43.855469 32.984374zm0 0"
            fill="#f6d100" data-original="#f6d100"></path>
        <path xmlns="http://www.w3.org/2000/svg"
            d="m245.167969 84.441406c-13.820313 8.074219-26.90625 14.550782-38.101563 19.011719 10.488282 10.988281 25.269532 17.84375 41.660156 17.84375 23.21875 0 43.214844-13.742187 52.335938-33.535156-17.480469 9.875-39.378906 8.796875-55.894531-3.320313zm0 0"
            fill="#f2ba00" data-original="#f2ba00" class=""></path>
        <path xmlns="http://www.w3.org/2000/svg"
            d="m185.808594 118.148438c-3.992188.003906-7.503906-2.894532-8.15625-6.957032-.722656-4.507812 2.34375-8.753906 6.855468-9.476562 15.308594-2.460938 42.6875-15.222656 69.746094-32.519532 41.007813-26.207031 60.117188-48.34375 61.488282-54.679687-1.621094-3.671875-.367188-8.074219 3.117187-10.304687 3.847656-2.457032 8.960937-1.332032 11.417969 2.515624 7.191406 11.25-5.441406 26.097657-15.570313 36.285157-12.617187 12.691406-30.921875 26.9375-51.546875 40.117187-29.261718 18.703125-58.394531 32.082032-76.03125 34.914063-.441406.074219-.886718.105469-1.320312.105469zm130.53125-102.519532.003906.007813zm0 0"
            fill="#d0e8fe" data-original="#d0e8fe"></path>
        <path xmlns="http://www.w3.org/2000/svg"
            d="m386.667969 217.992188c-1.425781 0-2.851563-.367188-4.132813-1.105469l-34.613281-19.984375c-2.558594-1.476563-4.136719-4.207032-4.136719-7.160156v-39.96875c0-2.953126 1.578125-5.683594 4.136719-7.160157l34.613281-19.984375c2.558594-1.476562 5.710938-1.476562 8.269532 0l34.613281 19.984375c2.558593 1.476563 4.136719 4.207031 4.136719 7.160157v39.96875c0 2.953124-1.578126 5.683593-4.136719 7.160156l-34.613281 19.984375c-1.28125.738281-2.707032 1.105469-4.136719 1.105469zm-26.34375-33.027344 26.34375 15.210937 26.347656-15.210937v-30.417969l-26.347656-15.210937-26.34375 15.210937zm0 0"
            fill="#ef75a7" data-original="#ef75a7"></path>
        <path xmlns="http://www.w3.org/2000/svg"
            d="m429.550781 144.558594c1.429688 0 2.855469-.371094 4.136719-1.109375l17.253906-9.960938c-3.023437-4.644531-6.195312-9.183593-9.515625-13.601562l-11.871093 6.851562-26.347657-15.210937v-30.417969l1.117188-.644531c-4.503907-3.839844-9.144531-7.515625-13.921875-11.023438-2.3125 1.523438-3.734375 4.101563-3.734375 6.894532v39.96875c0 2.953124 1.578125 5.683593 4.136719 7.160156l34.613281 19.984375c1.277343.738281 2.707031 1.109375 4.132812 1.109375zm0 0"
            fill="#31a7ed" data-original="#31a7ed" class=""></path>
        <path xmlns="http://www.w3.org/2000/svg"
            d="m352.050781 158.042969c-1.40625 0-2.828125-.355469-4.128906-1.109375l-18.0625-10.429688c-3.957031-2.285156-5.3125-7.339844-3.027344-11.296875 2.28125-3.957031 7.339844-5.308593 11.292969-3.027343l18.066406 10.429687c3.953125 2.285156 5.308594 7.34375 3.027344 11.296875-1.53125 2.652344-4.3125 4.136719-7.167969 4.136719zm0 0"
            fill="#eb5793" data-original="#eb5793"></path>
        <path xmlns="http://www.w3.org/2000/svg"
            d="m330.933594 244.359375c0 9.972656-8.085938 18.054687-18.058594 18.054687-9.96875 0-18.054688-8.082031-18.054688-18.054687s8.085938-18.054687 18.054688-18.054687c9.972656 0 18.058594 8.082031 18.058594 18.054687zm0 0"
            fill="#f9df5f" data-original="#f9df5f"></path>
        <path xmlns="http://www.w3.org/2000/svg"
            d="m291.273438 268.597656c0 5.429688-4.402344 9.828125-9.828126 9.828125-5.429687 0-9.832031-4.398437-9.832031-9.828125 0-5.429687 4.402344-9.828125 9.832031-9.828125 5.425782 0 9.828126 4.398438 9.828126 9.828125zm0 0"
            fill="#f9df5f" data-original="#f9df5f"></path>
        <path xmlns="http://www.w3.org/2000/svg"
            d="m408.585938 206.425781c-5.15625 0-9.332032-4.179687-9.332032-9.332031 0-1.859375.550782-3.585938 1.484375-5.039062l-14.070312 8.121093-26.34375-15.210937v-30.417969l17.351562-10.019531c-5.207031-.285156-9.34375-4.589844-9.34375-9.867188 0-1.601562.386719-3.109375 1.0625-4.445312l-21.472656 12.394531c-2.558594 1.476563-4.136719 4.207031-4.136719 7.164063v39.964843c0 2.957031 1.578125 5.683594 4.136719 7.164063l34.613281 19.984375c1.277344.738281 2.707032 1.105469 4.132813 1.105469 1.429687 0 2.859375-.367188 4.136719-1.105469l18.148437-10.476563c-.125.003906-.246094.015625-.367187.015625zm0 0"
            fill="#eb5793" data-original="#eb5793"></path>
    </g>
    <path
        d="m459 382.27v-26.116c0-3.08-2.497-5.577-5.577-5.577h-152.808c-4.028 0-7.946.47-11.706 1.348 13.972-9.624 30.667-15.04 48.214-15.21h106.63c4.142 0 7.5-3.358 7.5-7.5s-3.358-7.5-7.5-7.5h-106.703c-18.032.175-35.278 5.049-50.284 13.81-1.68.981-3.413-1.202-2.1-2.637 8.795-9.609 19.792-17.248 32.376-22.175l98.599-41.18c3.822-1.596 5.626-5.989 4.03-9.811-1.596-3.822-5.989-5.627-9.811-4.03l-98.367 41.085c-25.064 9.838-44.759 28.845-55.525 52.769-.613 1.363-2.538 1.336-3.114-.043-10.032-24.012-28.992-43.437-53.53-54.015l-96.959-44.31c-3.767-1.722-8.217-.063-9.939 3.704s-.063 8.217 3.704 9.939l97.033 44.344.154.068c12.222 5.257 22.818 13.091 31.228 22.773 1.22 1.404-.385 3.465-2.05 2.637-14.533-7.235-30.82-10.977-47.656-10.598l-106.602.123c-4.142.005-7.496 3.367-7.491 7.509.005 4.142 3.367 7.496 7.509 7.491l106.685-.123.168-.002c17.031-.407 33.406 4.146 47.409 12.754-3.585-.794-7.309-1.219-11.133-1.219h-152.807c-3.08 0-5.577 2.497-5.577 5.577v26.116h406z"
        fill="#ffffff" data-original="#ffffff"></path>
    <g>
        <path d="m93 382.27v-26.116c0-3.08 2.497-5.577 5.577-5.577h-40c-3.08 0-5.577 2.497-5.577 5.577v26.116z"
            fill="#eaf6ff" data-original="#eaf6ff"></path>
        <path d="m470 413v-26.38c0-2.955-2.395-5.35-5.35-5.35h-417.3c-2.955 0-5.35 2.395-5.35 5.35v26.38z"
            fill="#fedf30" data-original="#fedf30"></path>
        <path d="m92 413v-26.38c0-2.955 2.395-5.35 5.35-5.35h-50c-2.955 0-5.35 2.395-5.35 5.35v26.38z"
            fill="#fed402" data-original="#fed402"></path>
        <g>
            <path
                d="m281 404.189v-32.56c0-1.657 1.343-3 3-3h34c1.657 0 3 1.343 3 3v32.56c0 2.178-2.57 3.338-4.203 1.897l-14.123-12.455c-.956-.843-2.391-.843-3.347 0l-14.123 12.455c-1.634 1.441-4.204.281-4.204-1.897z"
                fill="#fe5694" data-original="#fe5694"></path>
        </g>
        <g>
            <path
                d="m297 371.629c0-1.657 1.343-3 3-3h-16c-1.657 0-3 1.343-3 3v32.56c0 2.178 2.57 3.338 4.203 1.897l11.797-10.403z"
                fill="#fd3581" data-original="#fd3581"></path>
        </g>
    </g>
    <g>
        <path d="m84.559 442c44.187 43.296 104.691 70 171.441 70s127.254-26.704 171.441-70z" fill="#c57a44"
            data-original="#c57a44"></path>
    </g>
    <g>
        <path
            d="m476.5 443h-441c-3.866 0-7-3.134-7-7v-17c0-3.866 3.134-7 7-7h441c3.866 0 7 3.134 7 7v17c0 3.866-3.134 7-7 7z"
            fill="#ea9b58" data-original="#ea9b58"></path>
    </g>
    <g>
        <path
            d="m75 427c-3.866 0-7-3.134-7-7v-8h-32.5c-3.866 0-7 3.134-7 7v17c0 3.866 3.134 7 7 7h441c3.866 0 7-3.134 7-7v-9z"
            fill="#d88a55" data-original="#d88a55"></path>
    </g>
</svg>