<svg xmlns="http://www.w3.org/2000/svg" version="1.1" xmlns:xlink="http://www.w3.org/1999/xlink" xmlns:svgjs="http://svgjs.com/svgjs" width="512" height="512" x="0" y="0" viewBox="0 0 128 128" style="enable-background:new 0 0 512 512" xml:space="preserve"><g><g data-name="Layer 3"><path fill="#87304b" d="M36.12 60.13s-3.18-17.94-3.18-26S44 9.62 64 9.62s31.05 15.59 31.05 25.25-3.18 25.25-3.18 25.25z" data-original="#87304b"></path><path fill="#f6a821" d="M63.95 91.31c-10.79 0-25 8-32.53 17.64a3.13 3.13 0 0 0 .07 4c10.9 12.7 55 12.64 65.06 0a3.13 3.13 0 0 0 0-3.86C89 99.34 74.73 91.31 63.95 91.31z" data-original="#f6a821"></path><ellipse cx="95.05" cy="60.13" fill="#e57e5a" rx="9.99" ry="7.27" transform="rotate(-45 95.043 60.152)" data-original="#e57e5a"></ellipse><ellipse cx="32.95" cy="60.13" fill="#e57e5a" rx="7.27" ry="9.99" transform="rotate(-45 32.94 60.143)" data-original="#e57e5a"></ellipse><path fill="#e57e5a" d="M77.88 94.78a59.79 59.79 0 0 0-7.59-2.58V75.65a6.35 6.35 0 0 0-12.69 0V92.2a53.22 53.22 0 0 0-7.38 2.53c0 .39 1.53 10.84 13.83 10.84s13.87-10.42 13.83-10.79z" data-original="#e57e5a"></path><path fill="#ff9566" d="M64 84.33c26.74 0 25.56-23.17 25.56-27V40.91a25.61 25.61 0 1 0-51.23 0v16.61c0 4.65-1.07 26.81 25.67 26.81z" data-original="#ff9566"></path><path fill="#87304b" d="M64 5.59c-23 0-34.23 19.61-34.23 29s15.4 2.07 18-2.54c2.92 8.13 29.36 8.15 32.41 0 2.63 4.61 18 12 18 2.54S87 5.59 64 5.59z" data-original="#87304b"></path><g fill="#6b1818"><path d="M71.56 84.9a23.29 23.29 0 0 0 12.31-6.27 22.73 22.73 0 0 0 5.4-9.09 7.86 7.86 0 0 0 3.08.6 10 10 0 0 0 1.54-.14 13.32 13.32 0 0 0 7.2-3.84c4.39-4.39 5.25-10.67 1.92-14-2-2-5.09-2.48-8.18-1.59.5-3.29 1-7 1.26-10.49 1.44-.51 3.41-1.86 3.41-5.46C99.5 24 87.31 4.33 64 4.32c-23.29 0-35.48 19.73-35.48 30.3 0 3.7 2.08 5 3.53 5.5.32 3.38.81 7.14 1.3 10.5-3.14-1-6.29-.5-8.33 1.54-3.33 3.33-2.47 9.61 1.92 14a12.74 12.74 0 0 0 8.74 3.95 8.06 8.06 0 0 0 2.88-.51 22.13 22.13 0 0 0 5.33 9 23.42 23.42 0 0 0 12.47 6.27v6.25a52.34 52.34 0 0 0-25.92 17 4.4 4.4 0 0 0 .11 5.57c6.33 7.37 21.84 9.94 33.86 9.94h1.49c11.62-.21 26-2.94 31.64-10a4.38 4.38 0 0 0 0-5.44 52.23 52.23 0 0 0-19.11-14.55l-.18-.08a44.85 44.85 0 0 0-6.67-2.39zm26.17-32.26a4.81 4.81 0 0 1 3.49 1.36c2.34 2.34 1.48 7-1.92 10.41a10.78 10.78 0 0 1-5.8 3.13 5.78 5.78 0 0 1-3.5-.49c.2-.88.36-1.73.48-2.55 1.34-1.8 4.83-5.71 7.64-5.71a1.27 1.27 0 0 0 0-2.54c-2.72 0-5.38 2-7.27 3.94v-4.33a10.25 10.25 0 0 1 6.88-3.22zm-6.9-.09V40.08a13 13 0 0 0 2.7.36c-.32 3.81-.89 7.88-1.43 11.31a14 14 0 0 0-1.27.81zM31 34.62c0-7.9 9.83-27.74 33-27.76 23.16 0 33 19.86 33 27.76 0 2.35-1.12 2.92-2 3.14-3.95 1-12.07-3.46-13.7-6.32a1.27 1.27 0 0 0-2.29.18c-1.15 3.08-7.45 5.28-15 5.28h-.31c-7.57-.04-13.62-2.2-14.7-5.25a1.27 1.27 0 0 0-2.3-.2c-1.63 2.86-9.75 7.36-13.7 6.32-.85-.23-2-.77-2-3.15zm3.57 5.82a13.08 13.08 0 0 0 2.48-.34v12.38c-.33-.23-.66-.44-1-.64-.51-3.52-1.05-7.68-1.45-11.4zM28.7 64.37C25.3 61 24.44 56.3 26.78 54a4.81 4.81 0 0 1 3.49-1.32 10.2 10.2 0 0 1 6.8 3.12v4.33c-1.84-1.89-4.45-3.91-7.15-3.91a1.27 1.27 0 0 0 0 2.54c2.79 0 6.18 3.89 7.48 5.69.11.85.27 1.74.47 2.66-2.52 1.19-6.3.14-9.17-2.74zm10.9-6.32V40.91c0-.54 0-1.07.06-1.6a23.44 23.44 0 0 0 8-5c3 3.69 10.19 5.09 16.06 5.13 6.09.05 13.59-1.32 16.67-5.14a23.38 23.38 0 0 0 7.87 5c0 .54.06 1.09.06 1.64v16.88c0 3.13.12 12.65-6.23 19.05C78 81 71.9 83.06 64 83.06c-8.07 0-14.24-2.09-18.34-6.21-6.15-6.19-6.08-15.35-6.06-18.79zM64 85.6a41.34 41.34 0 0 0 5-.3v6.9a1.27 1.27 0 0 0 1.08 1.25 57.82 57.82 0 0 1 6.35 2.11c-.58 2.3-3 8.74-12.4 8.74s-11.83-6.51-12.39-8.8a54.12 54.12 0 0 1 6.15-2 1.27 1.27 0 0 0 1.08-1.25V85.3a42.93 42.93 0 0 0 5.13.3zm31.54 24.22a1.87 1.87 0 0 1 0 2.29c-4.16 5.22-15.82 8.76-29.7 9-15.1.27-28.52-3.36-33.4-9a1.86 1.86 0 0 1 0-2.35 49.31 49.31 0 0 1 16.84-13.27 14.56 14.56 0 0 0 3.07 5.63c2.79 3.13 6.72 4.72 11.7 4.72s8.9-1.58 11.69-4.7a14.53 14.53 0 0 0 3.06-5.56 49.23 49.23 0 0 1 16.74 13.24z" fill="#6b1818" data-original="#6b1818"></path><ellipse cx="53.16" cy="52.03" rx="3.51" ry="3.49" fill="#6b1818" data-original="#6b1818"></ellipse><ellipse cx="74.74" cy="52.03" rx="3.47" ry="3.45" fill="#6b1818" data-original="#6b1818"></ellipse><path d="M57 43.82h1.47a1.27 1.27 0 1 0 0-2.54H57c-3.77 0-8-.1-10.09 2A1.27 1.27 0 0 0 48.74 45c1.26-1.26 5.32-1.22 8.26-1.18zM69.42 43.84h1.47c2.94 0 7-.09 8.26 1.21a1.27 1.27 0 1 0 1.79-1.79c-2.05-2.05-6.32-2-10.08-2h-1.44a1.27 1.27 0 0 0 0 2.54zM71.55 68a1.28 1.28 0 0 0-1.79-.11s-1.85 1.55-6.13 1.55-6.07-1.5-6.13-1.55a1.27 1.27 0 0 0-1.7 1.89c.25.23 2.56 2.2 7.83 2.2s7.58-2 7.83-2.2a1.26 1.26 0 0 0 .09-1.78z" fill="#6b1818" data-original="#6b1818"></path></g></g></g></svg>