<svg xmlns="http://www.w3.org/2000/svg" version="1.1" xmlns:xlink="http://www.w3.org/1999/xlink" xmlns:svgjs="http://svgjs.com/svgjs" width="512" height="512" x="0" y="0" viewBox="0 0 128 128" style="enable-background:new 0 0 512 512" xml:space="preserve" class=""><g><g data-name="Layer 7"><path fill="#663434" d="M32.95 108.12v-76C32.95 24.06 44 7.61 64 7.61s31.05 15.58 31.05 25.25v75.27z" data-original="#663434"></path><path fill="#993434" d="M63.94 89.3c-10.79 0-25 8-32.53 17.64a3.13 3.13 0 0 0 .07 4c10.9 12.7 55 12.64 65.06 0a3.13 3.13 0 0 0 0-3.86C89 97.32 74.73 89.3 63.94 89.3z" data-original="#993434"></path><ellipse cx="95.05" cy="58.11" fill="#d67050" rx="9.99" ry="7.27" transform="rotate(-45 95.046 58.13)" data-original="#d67050"></ellipse><ellipse cx="32.95" cy="58.11" fill="#d67050" rx="7.27" ry="9.99" transform="rotate(-45 32.942 58.122)" data-original="#d67050"></ellipse><path fill="#d67050" d="M74.07 91.26c-1.24-.31-2.5-.88-3.78-1.08V73.64a6.35 6.35 0 1 0-12.69 0v16.54c-1.21.19-2.4.74-3.57 1 0 .39 10 9.62 10 9.62s10.08-9.17 10.04-9.54z" data-original="#d67050"></path><path fill="#e57e5a" d="m89.56 47.64-.34-6.8c-4.49 0-17-7.77-20.78-16.66-8.68 5.09-30.11 10.1-30.11 25.82v5.5c0 4.64-1.08 26.81 25.67 26.81s25.56-23.17 25.56-27z" data-original="#e57e5a"></path><path fill="#6b1818" d="M101.1 64.15c4.39-4.39 5.25-10.67 1.92-14a7.67 7.67 0 0 0-6.69-1.91V32.86c0-9.52-10.8-26.52-32.32-26.52-20.91 0-32.32 17-32.32 25.78v16.12A7.67 7.67 0 0 0 25 50.15c-3.33 3.33-2.47 9.61 1.92 14a14 14 0 0 0 4.77 3.15v37.33q-.66.76-1.26 1.53a4.4 4.4 0 0 0 .11 5.57c6.33 7.37 21.84 9.94 33.86 9.94h1.5c11.62-.21 26-2.95 31.64-10a4.38 4.38 0 0 0 0-5.44q-.59-.75-1.22-1.49V67.3a14 14 0 0 0 4.78-3.15zm-3.37-13.52a4.81 4.81 0 0 1 3.49 1.32c2.34 2.34 1.48 7-1.92 10.41-2.94 2.94-6.83 4-9.34 2.68.2-.88.36-1.73.48-2.55 1.34-1.8 4.84-5.71 7.64-5.71a1.27 1.27 0 1 0 0-2.54c-2.72 0-5.38 2-7.27 3.94v-4.34a10.25 10.25 0 0 1 6.92-3.21zM34.22 32.12c0-7 10.13-23.24 29.78-23.24 19.83 0 29.78 15.38 29.78 24v16.04a13.52 13.52 0 0 0-3 1.62v-2.96l-.34-6.8a1.27 1.27 0 0 0-1.27-1.21c-4.11 0-16-7.52-19.62-15.89a1.27 1.27 0 0 0-1.81-.6 76 76 0 0 1-7.08 3.39c-10 4.4-23.64 10.43-23.64 23.53v.46a13.49 13.49 0 0 0-2.85-1.55zM70.1 91.44a10.82 10.82 0 0 1 1.67.44C70.1 93.5 67 96.37 64 99.1c-2.7-2.48-6-5.56-7.73-7.28a9.46 9.46 0 0 1 1.48-.39 1.27 1.27 0 0 0 1.08-1.25v-6.9a42.93 42.93 0 0 0 5.13.3 41.35 41.35 0 0 0 5-.3v6.9a1.27 1.27 0 0 0 1.14 1.26zM64 81c-8.07 0-14.25-2-18.34-6.17-6.15-6.19-6.08-15.34-6.06-18.83v-6c0-11.44 12.27-16.86 22.13-21.2 2.23-1 4.36-1.92 6.13-2.85C72.14 34.22 82.72 41 88 42l.29 5.69v8.1c0 3.13.12 12.65-6.23 19.05C78 79 71.9 81 64 81zM26.78 51.95c2.31-2.31 6.89-1.5 10.28 1.8v4.38c-1.84-1.89-4.45-3.91-7.15-3.91a1.27 1.27 0 1 0 0 2.54c2.79 0 6.18 3.89 7.48 5.69.11.85.27 1.74.47 2.66-2.52 1.16-6.29.11-9.17-2.76-3.39-3.35-4.25-8.06-1.91-10.4zm7.44 16a10 10 0 0 0 1.43.12 8 8 0 0 0 2.88-.52 22.13 22.13 0 0 0 5.33 9 23.42 23.42 0 0 0 12.47 6.27v6.25A53.09 53.09 0 0 0 34.22 102zm61.33 42.11c-4.16 5.22-15.82 8.76-29.7 9-15.1.27-28.52-3.36-33.4-9a1.85 1.85 0 0 1 0-2.35 49.89 49.89 0 0 1 21.13-15.07c1.12 1.25 3.71 3.7 9.61 9.12a1.27 1.27 0 0 0 1.71 0c5.87-5.37 8.47-7.81 9.6-9.06a49.87 49.87 0 0 1 21 15.1 1.87 1.87 0 0 1 .05 2.29zm-1.77-8a53.13 53.13 0 0 0-22.12-12.91h-.11v-6.27a23.29 23.29 0 0 0 12.31-6.27 22.74 22.74 0 0 0 5.41-9.11 8 8 0 0 0 3.08.6 10 10 0 0 0 1.43-.1z" data-original="#6b1818"></path><ellipse cx="53.16" cy="50.01" fill="#6b1818" rx="3.51" ry="3.49" data-original="#6b1818"></ellipse><ellipse cx="74.74" cy="50.01" fill="#6b1818" rx="3.47" ry="3.45" data-original="#6b1818"></ellipse><path fill="#6b1818" d="M59.74 38.35a1.27 1.27 0 0 0-1.27-1.27c-3.33 0-9.1 1.09-11.52 3.51a1.27 1.27 0 0 0 1.79 1.8c1.63-1.63 6.43-2.76 9.73-2.76a1.27 1.27 0 0 0 1.27-1.28zM69.42 37.08a1.27 1.27 0 0 0 0 2.54c3.29 0 8.1 1.13 9.73 2.76a1.27 1.27 0 0 0 1.79-1.8c-2.41-2.41-8.19-3.5-11.52-3.5zM71.33 65.78a1.28 1.28 0 0 0-1.76.3c-.06.08-1.52 2-5.62 2s-6.25-2.06-6.35-2.17a1.27 1.27 0 0 0-1.87 1.72c.11.12 2.8 3 8.21 3s7.63-3 7.71-3.13a1.26 1.26 0 0 0-.32-1.72z" data-original="#6b1818"></path><path fill="#ffffff" d="M91 48.79a1.27 1.27 0 0 0-1.53-.93l-5.29 1.29a10.19 10.19 0 0 0-20.18.27h-.17a10.19 10.19 0 0 0-20.17-.31l-5.16-1.25a1.27 1.27 0 0 0-.6 2.47l5.65 1.38a10.19 10.19 0 0 0 20.26.29H64a10.19 10.19 0 0 0 20.25-.22l5.81-1.41a1.27 1.27 0 0 0 .94-1.58zm-37.3 9.56a7.66 7.66 0 1 1 7.66-7.66 7.67 7.67 0 0 1-7.66 7.66zm20.4 0a7.66 7.66 0 1 1 7.66-7.66 7.67 7.67 0 0 1-7.66 7.66z" data-original="#ffffff"></path><g fill="#d65177"><circle cx="49.25" cy="100.64" r="1.85" fill="#d65177" data-original="#d65177"></circle><circle cx="49.25" cy="111.75" r="1.85" fill="#d65177" data-original="#d65177"></circle><circle cx="42.19" cy="106.18" r="1.85" fill="#d65177" data-original="#d65177"></circle><circle cx="56.34" cy="106.18" r="1.85" fill="#d65177" data-original="#d65177"></circle><circle cx="77.57" cy="100.64" r="1.85" fill="#d65177" data-original="#d65177"></circle><circle cx="77.57" cy="111.75" r="1.85" fill="#d65177" data-original="#d65177"></circle><circle cx="70.5" cy="106.18" r="1.85" fill="#d65177" data-original="#d65177"></circle><circle cx="84.66" cy="106.18" r="1.85" fill="#d65177" data-original="#d65177"></circle><circle cx="63.41" cy="111.75" r="1.85" fill="#d65177" data-original="#d65177"></circle></g></g></g></svg>