<svg xmlns="http://www.w3.org/2000/svg" version="1.1" xmlns:xlink="http://www.w3.org/1999/xlink" xmlns:svgjs="http://svgjs.com/svgjs" width="512" height="512" x="0" y="0" viewBox="0 0 128 128" style="enable-background:new 0 0 512 512" xml:space="preserve" class=""><g><g data-name="Layer 2"><path fill="#f6a821" d="M63.64 117.16c-23 0-38-10.79-38-21.8s6.73-19.45 6.73-41.21V30.21c0-7.62 12.37-23.8 31.25-23.8s31.25 15.37 31.25 24.5v23.23c0 21.76 6.73 30.2 6.73 41.21s-15.01 21.81-37.96 21.81z" data-original="#f6a821"></path><path fill="#993434" d="M63.94 90.49c-10.79 0-25 8-32.53 17.64a3.13 3.13 0 0 0 .07 4c10.9 12.7 55 12.64 65.06 0a3.13 3.13 0 0 0 0-3.86C89 98.52 74.73 90.49 63.94 90.49z" data-original="#993434"></path><ellipse cx="95.05" cy="59.31" fill="#ff9566" rx="9.99" ry="7.27" transform="rotate(-45 95.043 59.332)" data-original="#ff9566"></ellipse><ellipse cx="32.95" cy="59.31" fill="#ff9566" rx="7.27" ry="9.99" transform="rotate(-45 32.94 59.323)" data-original="#ff9566"></ellipse><path fill="#ff9566" d="M74.07 92.45c-1.24-.31-2.5-.88-3.78-1.08V74.83a6.35 6.35 0 0 0-12.69 0v16.55c-1.21.19-2.4.74-3.57 1 0 .39-.07 1.85-.07 2.25a10.09 10.09 0 0 0 20.18 0c0-.36-.03-1.81-.07-2.18z" data-original="#ff9566"></path><path fill="#f7a379" d="M64 83.51c26.74 0 25.56-23.17 25.56-27V40.09a25.61 25.61 0 1 0-51.23 0V56.7c0 4.65-1.07 26.81 25.67 26.81z" data-original="#f7a379"></path><path fill="#f6a821" d="M70.61 32.43c-4 2.12-38.22 9.61-38.22-2.22 0-4.58 9.18-23.8 31.25-23.8S94.89 26 94.89 30.91s-6.17 8.36-20.16 3.14l-.6-12.49z" data-original="#f6a821"></path><path fill="#ca69cc" d="M74.07 92.45c0 .37.07 1.82.07 2.2A10.09 10.09 0 0 1 64 104.75c5.08 5.03 25.9 3.54 10.07-12.3zM54 92.45c0 .37-.07 1.82-.07 2.2A10.09 10.09 0 0 0 64 104.75c-5.06 5.03-25.88 3.54-10-12.3z" data-original="#ca69cc"></path><g fill="#6b1818"><path d="M100.32 81.47a111.1 111.1 0 0 1-3.09-13.37 14.2 14.2 0 0 0 3.87-2.75c4.39-4.39 5.25-10.67 1.92-14a7.72 7.72 0 0 0-6.85-1.88s0-9.65 0-18.77C96.15 24 85.76 5.14 63.64 5.14c-21.41 0-32.46 17.56-32.46 24.22s-.07 20-.07 20a7.47 7.47 0 0 0-6.13 2c-3.33 3.33-2.47 9.61 1.92 14a14.4 14.4 0 0 0 3.2 2.42A109.83 109.83 0 0 1 27 81.47c-1.38 4.9-2.57 9.13-2.57 13.89 0 4.23 2 8.51 5.88 12.21a4.39 4.39 0 0 0 .25 5.35c6.33 7.37 21.84 9.94 33.86 9.94h1.48c11.62-.21 26-2.94 31.64-10a4.38 4.38 0 0 0 0-5.44l-.18-.22c3.6-3.63 5.52-7.77 5.52-11.86.01-4.74-1.18-8.97-2.56-13.87zm-2.59-29.65a4.81 4.81 0 0 1 3.49 1.32c2.34 2.34 1.48 7-1.92 10.41-2.94 2.94-6.83 4-9.34 2.69.2-.88.36-1.74.48-2.56 1.34-1.8 4.83-5.71 7.64-5.71a1.27 1.27 0 1 0 0-2.54c-2.72 0-5.38 2-7.27 3.94v-4.33a10.25 10.25 0 0 1 6.92-3.22zm-37.47 53.57c-3.33 1.06-8 .91-10-1.06-2.13-2.13.15-5.86 2.43-8.6a11.39 11.39 0 0 0 7.57 9.66zm15.1-9.66c2.28 2.74 4.56 6.46 2.43 8.6-2 2-6.69 2.11-10 1.06a11.39 11.39 0 0 0 7.56-9.66zm-5.26-3.1c.67.1 2.52.72 2.75.79 0 4.81-3.94 10.06-8.8 10.06s-8.8-4.67-8.8-10.1c.21-.07 1.94-.65 2.54-.74a1.27 1.27 0 0 0 1.08-1.25v-6.9a42.93 42.93 0 0 0 5.13.3 41.33 41.33 0 0 0 5-.3v6.9a1.27 1.27 0 0 0 1.1 1.24zM64 82.24c-8.07 0-14.24-2.09-18.34-6.21-6.15-6.19-6.09-15.35-6.06-18.79V40.09a23.87 23.87 0 0 1 .14-2.54 37 37 0 0 0 5.88.43C56 38 68.77 34.83 71.2 33.56a1.27 1.27 0 0 0 .62-.73l1.39-4.27.27 5.56a1.27 1.27 0 0 0 .82 1.13c5.47 2 10.21 2.91 13.89 2.61.07.74.11 1.48.11 2.24v16.88c0 3.13.12 12.65-6.23 19.05C78 80.15 71.9 82.24 64 82.24zM37.06 40.09v11.56a13.31 13.31 0 0 0-3.41-1.76V35.28a15.5 15.5 0 0 0 3.6 1.7 26.66 26.66 0 0 0-.19 3.11zm53.77 11.65V40.09c0-.9 0-1.8-.14-2.68a8.91 8.91 0 0 0 2.69-1.22l.24-.19v14.18a13.57 13.57 0 0 0-2.79 1.56zM63.64 7.68c20.69 0 30 18.47 30 23.23a3.7 3.7 0 0 1-1.69 3.19c-1.38 1-5.65 2.73-16-1l-.55-11.59a1.27 1.27 0 0 0-2.48-.33l-3.35 10.33c-4.42 1.8-26.51 6.54-33.84 2.12a3.76 3.76 0 0 1-2.07-3.42C33.65 25.59 43 7.68 63.64 7.68zM26.78 53.14a4.78 4.78 0 0 1 3.47-1.3 7.37 7.37 0 0 1 1.14.09 10.72 10.72 0 0 1 5.67 3s0 3.57 0 4.4c-1.84-1.89-4.45-3.91-7.15-3.91a1.27 1.27 0 1 0 0 2.54c2.79 0 6.18 3.89 7.48 5.69.11.85.27 1.75.47 2.66-2.52 1.16-6.29.11-9.17-2.77-3.39-3.39-4.25-8.06-1.91-10.4zm2.62 29a114.46 114.46 0 0 0 3.11-13.37 10.65 10.65 0 0 0 3.13.5 8.06 8.06 0 0 0 2.88-.52 22.13 22.13 0 0 0 5.33 9 23.42 23.42 0 0 0 12.47 6.27v6.25a52.85 52.85 0 0 0-24.42 15.24c-3.24-3.17-5-6.74-5-10.21.03-4.3 1.17-8.42 2.5-13.14zm66.15 29.13c-4.16 5.22-15.82 8.76-29.7 9-15.09.27-28.52-3.36-33.4-9a1.86 1.86 0 0 1 0-2.35A49.41 49.41 0 0 1 49.63 95.5c-2.52 3.45-4.21 7.6-1.19 10.62 1.71 1.71 4.56 2.48 7.47 2.48a14.57 14.57 0 0 0 8.09-2.24 14.57 14.57 0 0 0 8.09 2.24c2.91 0 5.76-.76 7.47-2.48 3-3 1.36-7.1-1.12-10.53A49.34 49.34 0 0 1 95.54 109a1.87 1.87 0 0 1 .01 2.29zm-24-21v-6.19a23.29 23.29 0 0 0 12.31-6.27 22.74 22.74 0 0 0 5.4-9.1 8 8 0 0 0 3.08.59 10.37 10.37 0 0 0 2.46-.3 115.29 115.29 0 0 0 3.08 13.17c1.33 4.72 2.47 8.79 2.47 13.2a14 14 0 0 1-4.57 10 52.86 52.86 0 0 0-24.22-15.04z" fill="#6b1818" data-original="#6b1818"></path><ellipse cx="53.16" cy="51.21" rx="3.51" ry="3.49" fill="#6b1818" data-original="#6b1818"></ellipse><ellipse cx="74.74" cy="51.21" rx="3.47" ry="3.45" fill="#6b1818" data-original="#6b1818"></ellipse><path d="M59.74 38.91a1.27 1.27 0 0 0-1.27-1.27c-3.33 0-9.1 1.09-11.52 3.51a1.27 1.27 0 0 0 1.79 1.8c1.63-1.63 6.43-2.76 9.73-2.76a1.27 1.27 0 0 0 1.27-1.28zM69.42 37.64a1.27 1.27 0 0 0 0 2.54c3.29 0 8.1 1.13 9.73 2.76a1.27 1.27 0 1 0 1.79-1.79c-2.41-2.42-8.19-3.51-11.52-3.51zM69.71 65.48a1.25 1.25 0 0 0-1.58.83c0 .07-.71 1.71-4.5 1.71s-4.45-1.58-4.5-1.71a1.27 1.27 0 0 0-2.42.77c0 .14 1.12 3.48 6.92 3.48s6.87-3.33 6.91-3.48a1.29 1.29 0 0 0-.83-1.6z" fill="#6b1818" data-original="#6b1818"></path><circle cx="63.98" cy="111.09" r="1.69" fill="#6b1818" data-original="#6b1818"></circle><circle cx="63.98" cy="116.8" r="1.69" fill="#6b1818" data-original="#6b1818"></circle></g></g></g></svg>