<svg xmlns="http://www.w3.org/2000/svg" version="1.1" xmlns:xlink="http://www.w3.org/1999/xlink" xmlns:svgjs="http://svgjs.com/svgjs" width="512" height="512" x="0" y="0" viewBox="0 0 128 128" style="enable-background:new 0 0 512 512" xml:space="preserve" class=""><g><g data-name="Layer 16"><path fill="#663434" d="M101.44 72.46c5.23-3.38 4.31-11.66-1-18.88s0-46-37.61-46c-20 0-31.05 14.08-31.05 28.89v21.64c0 8.48-1.6 16-2.2 20.91s3.77 12.91 12.66 12.91c6.77 9.52 16.63 10.8 29.42 6.51 10.59 3.76 19.45-.8 24.38-8 8.34-1.9 11.16-11.63 5.4-17.98z" data-original="#663434"></path><path fill="#c7b299" d="M62.8 89.3c-10.79 0-25 8-32.53 17.64a3.13 3.13 0 0 0 .07 4c10.9 12.7 55 12.64 65.06 0a3.13 3.13 0 0 0 0-3.86C87.83 97.32 73.59 89.3 62.8 89.3z" data-original="#c7b299"></path><ellipse cx="31.8" cy="58.11" fill="#aa5c41" rx="7.27" ry="9.99" transform="rotate(-45 31.795 58.127)" data-original="#aa5c41"></ellipse><path fill="#aa5c41" d="M81.05 94.93a57.53 57.53 0 0 0-11.91-4.75V73.64a6.35 6.35 0 0 0-12.69 0v16.54a42.68 42.68 0 0 0-11.76 4.74c0 .39 12.64 8.62 18.21 8.62s18.2-8.24 18.15-8.61z" data-original="#aa5c41"></path><path fill="#c16b49" d="M62.85 82.31c26.74 0 25.56-23.17 25.56-27V38.89a25.61 25.61 0 1 0-51.23 0v16.62c.01 4.64-1.07 26.8 25.67 26.8z" data-original="#c16b49"></path><path fill="#663434" d="M46.43 19.2c5.08-5.29 17.19-2.59 20.58 3.55A112.69 112.69 0 0 0 85 47.8c5.5 5.66 3.54 15.23 2 19s1.56 7.89 5.49 4c13.2-13.2 12.43-63.13-28.67-63.13-9.72-.03-15.91 6.66-17.39 11.53z" data-original="#663434"></path><g fill="#6b1818"><path d="M106 67.56c.79-4.28-.9-9.79-4.52-14.73a4.61 4.61 0 0 1-.4-.67 50.2 50.2 0 0 0-3.27-24C92 14.1 79.94 6.37 63.83 6.37h-.69a1.08 1.08 0 0 0-.3 0c-21.22 0-32.32 15.17-32.32 30.16v11.68a7.62 7.62 0 0 0-6.69 1.94c-3.33 3.33-2.47 9.61 1.92 14A14.16 14.16 0 0 0 30 67.09c-.31 2.75-.69 5.31-1 7.58-.23 1.52-.45 3-.61 4.2a13.13 13.13 0 0 0 3.43 9.68 13.74 13.74 0 0 0 9.83 4.63c.36.48.74.94 1.12 1.38a50.15 50.15 0 0 0-13.45 11.59 4.4 4.4 0 0 0 .11 5.57c6.33 7.37 21.84 9.94 33.86 9.94h1.51c11.62-.21 26-2.94 31.64-10a4.38 4.38 0 0 0 0-5.44 46 46 0 0 0-7.63-7.59 23.57 23.57 0 0 0 8.06-7.09 11.85 11.85 0 0 0 8.36-7.89 12.22 12.22 0 0 0-1.95-11 8.93 8.93 0 0 0 2.72-5.09zM95.47 29.1c5.1 12.32 4.53 32.37-3.87 40.77-.53.53-1.86 1.68-2.84 1-.77-.51-1.21-2-.58-3.62C90 62.88 91.77 53 85.9 46.91a112.2 112.2 0 0 1-17.78-24.78c-1.93-3.5-6.5-6.2-11.63-6.87a18.08 18.08 0 0 0-2.35-.16 14.51 14.51 0 0 0-4.09.57l-.14-.22a17.47 17.47 0 0 1 13.92-6.54c19.24 0 27.83 10.98 31.64 20.19zM86 66c-1.25 3.27-2.68 6.43-5 8.8C76.83 79 70.75 81 62.85 81c-8.07 0-14.24-2-18.34-6.17-6.14-6.19-6.08-15.34-6.06-18.83V38.9a24.31 24.31 0 0 1 10.8-20.2 11.91 11.91 0 0 1 6.9-.92c4.29.56 8.2 2.8 9.74 5.58a114.57 114.57 0 0 0 18.19 25.32C89.05 53.81 87.22 62.63 86 66zM68.87 91.42a51.51 51.51 0 0 1 9.8 3.73c-3.42 2.26-11.81 7.14-15.77 7.14S50.35 97.33 47 95.1a40 40 0 0 1 9.68-3.66 1.27 1.27 0 0 0 1-1.25v-6.9a42.92 42.92 0 0 0 5.13.3 41.35 41.35 0 0 0 5-.3v6.9a1.27 1.27 0 0 0 1.06 1.23zm-18.3-80.28a16.93 16.93 0 0 0-5.25 7.35 26.82 26.82 0 0 0-9.41 20.4v11.57a13.48 13.48 0 0 0-2.85-1.55V36.5c.01-13 7.7-21.55 17.51-25.36zM25.63 51.95a4.78 4.78 0 0 1 3.47-1.3 7.36 7.36 0 0 1 1.14.09 10.72 10.72 0 0 1 5.67 3v4.39c-1.84-1.89-4.45-3.91-7.15-3.91a1.27 1.27 0 1 0 0 2.54c2.79 0 6.18 3.89 7.48 5.69.11.85.27 1.74.47 2.66-2.52 1.16-6.29.11-9.17-2.76-3.39-3.35-4.25-8.06-1.91-10.4zm8 34.92a10.58 10.58 0 0 1-2.81-7.69c.15-1.21.37-2.62.6-4.12.33-2.16.69-4.58 1-7.17a10.22 10.22 0 0 0 2 .22 8.06 8.06 0 0 0 2.88-.51 22.13 22.13 0 0 0 5.33 9 23.42 23.42 0 0 0 12.47 6.27v6.27A46.26 46.26 0 0 0 45 93.29a23.64 23.64 0 0 1-1.7-2.1 1.27 1.27 0 0 0-1-.53 11.12 11.12 0 0 1-8.63-3.79zm60.76 20.93a1.87 1.87 0 0 1 0 2.29c-4.16 5.22-15.82 8.76-29.7 9-15.11.28-28.52-3.36-33.4-9a1.86 1.86 0 0 1 0-2.35A48 48 0 0 1 44.5 96.42c2.88 2.1 13.21 8.4 18.4 8.4s15.33-6.19 18.28-8.35a47.92 47.92 0 0 1 13.21 11.33zm9.11-40.7a6.23 6.23 0 0 1-2.76 4.29 1.27 1.27 0 0 0-.25 1.92 9.82 9.82 0 0 1 2.27 9.59 9.25 9.25 0 0 1-7 6.3 1.27 1.27 0 0 0-.76.52A20.24 20.24 0 0 1 86.53 97c-1.49-1.07-3-2.06-4.62-3a1.27 1.27 0 0 0-.27-.19 63.2 63.2 0 0 0-11.23-4.61v-6.32a23.29 23.29 0 0 0 12.31-6.27 21.36 21.36 0 0 0 3.52-4.72A4.09 4.09 0 0 0 87.36 73a3.8 3.8 0 0 0 2.07.61 5.65 5.65 0 0 0 4-2c3.38-3.38 5.91-9 7.14-15.69 2.43 3.97 3.52 8.02 2.93 11.18z" fill="#6b1818" data-original="#6b1818"></path><ellipse cx="52.01" cy="50.01" rx="3.51" ry="3.49" fill="#6b1818" data-original="#6b1818"></ellipse><ellipse cx="73.59" cy="50.01" rx="3.47" ry="3.45" fill="#6b1818" data-original="#6b1818"></ellipse><path d="M46.7 43.39a1.27 1.27 0 0 1-.9-2.17c1.89-1.89 5.52-1.72 9-1.55.89 0 1.74.08 2.5.08a1.27 1.27 0 1 1 0 2.54c-.82 0-1.69 0-2.62-.09-2.68-.13-6-.29-7.11.81a1.27 1.27 0 0 1-.87.38zM78.9 43.39A1.27 1.27 0 0 1 78 43c-1.1-1.1-4.43-.94-7.11-.81-.93 0-1.8.09-2.62.09a1.27 1.27 0 0 1 0-2.54c.76 0 1.6 0 2.5-.08 3.51-.17 7.14-.34 9 1.55a1.27 1.27 0 0 1-.9 2.17zM62.8 70.66c-5.42 0-8.1-2.86-8.21-3a1.27 1.27 0 0 1 1.87-1.72c.1.1 2.12 2.17 6.35 2.17s5.56-1.95 5.62-2a1.28 1.28 0 0 1 1.76-.3 1.26 1.26 0 0 1 .33 1.74c-.09.1-2.19 3.11-7.72 3.11z" fill="#6b1818" data-original="#6b1818"></path></g></g></g></svg>