<svg xmlns="http://www.w3.org/2000/svg" version="1.1" xmlns:xlink="http://www.w3.org/1999/xlink" xmlns:svgjs="http://svgjs.com/svgjs" width="512" height="512" x="0" y="0" viewBox="0 0 128 128" style="enable-background:new 0 0 512 512" xml:space="preserve" class=""><g><g data-name="Layer 5"><circle cx="64" cy="46.51" r="42.83" fill="#663434" data-original="#663434"></circle><path fill="#aa5c41" d="M64.31 93.22c-10.79 0-25 8-32.53 17.64a3.13 3.13 0 0 0 .07 4c10.9 12.7 55 12.64 65.06 0a3.13 3.13 0 0 0 0-3.86c-7.57-9.76-21.82-17.78-32.6-17.78z" data-original="#aa5c41"></path><path fill="#349996" d="M90.89 104.81a61.4 61.4 0 0 0-12.11-7.9c0 8-6.47 15.29-14.44 15.29S49.9 104.87 49.9 96.88a63.25 63.25 0 0 0-12.14 7.87 23.46 23.46 0 0 1 2.07 10.06 26.73 26.73 0 0 1-.49 5.12c13.34 5.81 36.85 5.84 50 .14a26.68 26.68 0 0 1-.51-5.26 23.42 23.42 0 0 1 2.06-10z" data-original="#349996"></path><ellipse cx="95.42" cy="62.03" fill="#aa5c41" rx="9.99" ry="7.27" transform="rotate(-45 95.413 62.06)" data-original="#aa5c41"></ellipse><ellipse cx="33.31" cy="62.03" fill="#aa5c41" rx="7.27" ry="9.99" transform="rotate(-45 33.297 62.045)" data-original="#aa5c41"></ellipse><path fill="#aa5c41" d="M74.43 95.18c-1.24-.31-2.5-.88-3.78-1.08V77.56a6.35 6.35 0 0 0-12.69 0V94.1c-1.21.19-2.4.74-3.57 1 0 .39-.07 1.85-.07 2.25a10.09 10.09 0 1 0 20.18 0c0-.35-.03-1.8-.07-2.17z" data-original="#aa5c41"></path><path fill="#f6a821" d="M74.43 95.18c1 7.29-4.45 12.29-10 12.29s-11-4.68-10-12.34l-4.53 1.75c0 8 6.46 15.32 14.44 15.32s14.44-7.35 14.44-15.32z" data-original="#f6a821"></path><path fill="#c16b49" d="M64.36 86.23c26.74 0 25.56-23.17 25.56-27V42.81c0-9.35-11.47-16.55-25.61-16.55s-25.61 7-25.61 16.55v16.62c0 4.64-1.08 26.8 25.66 26.8z" data-original="#c16b49"></path><g fill="#6b1818"><path d="M71.92 93.06v-3.18a44.09 44.09 0 1 0-15.23.12v3.07c-11.15 3.42-21.33 11.17-25.92 17a4.4 4.4 0 0 0 .11 5.57c1.91 2.22 10.77 9.95 33.75 9.95 22.22 0 31.43-7.7 33.26-10a4.38 4.38 0 0 0 0-5.44c-4.54-5.83-15.14-14.06-25.97-17.09zm17.42 12.11a25.35 25.35 0 0 0-1.77 9.64 28.26 28.26 0 0 0 .35 4.45 45 45 0 0 1-6.13 1.91h-.16l-.49.11a82.42 82.42 0 0 1-32.36.16h-.1l-.92-.2a47.19 47.19 0 0 1-7-2.14 28.3 28.3 0 0 0 .33-4.31 25.35 25.35 0 0 0-1.78-9.67 75.31 75.31 0 0 1 9.43-6.29c1 8.11 7.7 14.63 15.59 14.63S79 107 79.92 98.87a83.52 83.52 0 0 1 9.42 6.3zm-62.2-49.3a4.81 4.81 0 0 1 3.49-1.32 10.2 10.2 0 0 1 6.8 3.12v4.4c-1.84-1.89-4.45-3.91-7.15-3.91a1.27 1.27 0 1 0 0 2.54c2.79 0 6.19 3.89 7.48 5.69.11.85.27 1.74.47 2.66a5.9 5.9 0 0 1-3.37.37 10.77 10.77 0 0 1-5.8-3.13c-3.4-3.41-4.26-8.08-1.92-10.42zM40 60V42.81c0-8.57 10.69-15.28 24.34-15.28 13.42 0 24.34 6.85 24.34 15.28v16.88c0 3.13.12 12.65-6.23 19.05C78.34 82.87 72.26 85 64.36 85c-8.07 0-14.24-2.12-18.36-6.25-6.12-6.19-6.06-15.34-6-18.75zm16 45a11.25 11.25 0 0 0 17-.13 11.86 11.86 0 0 0 2.89-7.71l1.66.65c-.45 7.12-6.4 13.2-13.14 13.2s-12.7-6.07-13.14-13.2L53 97a12 12 0 0 0 2.93 7.93zm8.36-17.5a41.34 41.34 0 0 0 5-.3v6.9a1.27 1.27 0 0 0 1.08 1.25c.67.1 2.52.72 2.75.79a11.15 11.15 0 0 1-2.2 7 8.92 8.92 0 0 1-6.6 3.07 8.78 8.78 0 0 1-6.57-3 12.49 12.49 0 0 1-2.22-7.15c.21-.07 1.94-.65 2.54-.74a1.27 1.27 0 0 0 1.08-1.25V87.2a42.93 42.93 0 0 0 5.14.3zm7.56-.21v-.49a23.29 23.29 0 0 0 12.31-6.27 22.74 22.74 0 0 0 5.41-9.11 8 8 0 0 0 3.08.6 11.39 11.39 0 0 0 5-1.27 41.64 41.64 0 0 1-25.8 16.54zm19.27-27.62v-1.91A10.76 10.76 0 0 1 97 54.65a7.37 7.37 0 0 1 1.14-.09 4.78 4.78 0 0 1 3.47 1.3c2.34 2.34 1.48 7-1.92 10.41-2.94 2.94-6.83 4-9.34 2.69.2-.88.36-1.74.48-2.56 1.34-1.8 4.84-5.71 7.64-5.71a1.27 1.27 0 1 0 0-2.54c-2.72 0-5.38 2-7.27 3.94.01-.98 0-1.82-.01-2.42zM64 4.95a41.56 41.56 0 0 1 40.54 50.72 6.58 6.58 0 0 0-1.16-1.6 7.65 7.65 0 0 0-6.8-1.93 12.64 12.64 0 0 0-5.38 2.31V42.81c0-10-11.81-17.82-26.88-17.82C49 25 37.43 32.66 37.43 42.81v11.57c-4.15-2.93-9.21-3.18-12.08-.31a6.72 6.72 0 0 0-1.62 2.68A41.54 41.54 0 0 1 64 4.95zM29.83 70.12a12.37 12.37 0 0 0 4.64 1.79A10 10 0 0 0 36 72a7.93 7.93 0 0 0 2.88-.52 22.12 22.12 0 0 0 5.33 9 23.42 23.42 0 0 0 12.47 6.27v.6a41.63 41.63 0 0 1-26.85-17.23zm3 43.86a1.86 1.86 0 0 1 0-2.35 41.36 41.36 0 0 1 4.48-4.81 23.34 23.34 0 0 1 1.31 8 26 26 0 0 1-.21 3.23 17.72 17.72 0 0 1-5.6-4.05zm63.1 0a16.48 16.48 0 0 1-5.57 4.17 25.93 25.93 0 0 1-.22-3.38 23.3 23.3 0 0 1 1.3-7.93 41.34 41.34 0 0 1 4.49 4.84 1.87 1.87 0 0 1-.02 2.32z" fill="#6b1818" data-original="#6b1818"></path><ellipse cx="53.52" cy="53.93" rx="3.51" ry="3.49" fill="#6b1818" data-original="#6b1818"></ellipse><ellipse cx="75.1" cy="53.93" rx="3.47" ry="3.45" fill="#6b1818" data-original="#6b1818"></ellipse><path d="M48.21 47.31a1.27 1.27 0 0 0 .9-.37c1.63-1.63 6.43-2.76 9.73-2.76a1.27 1.27 0 1 0 0-2.54c-3.33 0-9.1 1.09-11.52 3.51a1.27 1.27 0 0 0 .9 2.17zM69.79 44.17c3.29 0 8.1 1.13 9.73 2.76a1.27 1.27 0 0 0 1.79-1.8c-2.42-2.42-8.19-3.51-11.52-3.51a1.27 1.27 0 0 0 0 2.54zM54.44 67.31A1.27 1.27 0 0 0 52.57 69c.16.18 4 4.29 11.9 4.29s11-4.25 11.09-4.44a1.27 1.27 0 0 0-2.1-1.43c-.1.14-2.43 3.33-9 3.33s-9.88-3.28-10.02-3.44z" fill="#6b1818" data-original="#6b1818"></path></g></g></g></svg>