<svg xmlns="http://www.w3.org/2000/svg" version="1.1" xmlns:xlink="http://www.w3.org/1999/xlink" xmlns:svgjs="http://svgjs.com/svgjs" width="512" height="512" x="0" y="0" viewBox="0 0 128 128" style="enable-background:new 0 0 512 512" xml:space="preserve" class=""><g><g data-name="Layer 9"><path fill="#ff9566" d="M63.95 95.53c-10.79 0-25 8-32.53 17.64a3.13 3.13 0 0 0 .07 4c10.9 12.7 55 12.64 65.06 0a3.13 3.13 0 0 0 0-3.86c-7.55-9.75-21.82-17.78-32.6-17.78z" data-original="#ff9566"></path><path fill="#ca69cc" d="M84.94 114.41a26.6 26.6 0 0 1 2-10.23c-7.21-5.16-15.83-8.66-23-8.66S48.24 99 41 104.15a26.58 26.58 0 0 1 2 10.26 27.22 27.22 0 0 1-1.43 8.85c12.71 4.46 32.24 4.49 44.83.13a27.18 27.18 0 0 1-1.46-8.98z" data-original="#ca69cc"></path><circle cx="64.05" cy="13.84" r="12.47" fill="#f6a821" data-original="#f6a821"></circle><path fill="#f6a821" d="M37 64.35s-4-17.94-4-26 11-24.51 31-24.51S95.05 29.43 95.05 39.1s-4.33 25.25-4.33 25.25z" data-original="#f6a821"></path><ellipse cx="95.05" cy="64.35" fill="#ff9566" rx="9.99" ry="7.27" transform="rotate(-45 95.05 64.37)" data-original="#ff9566"></ellipse><ellipse cx="32.95" cy="64.35" fill="#ff9566" rx="7.27" ry="9.99" transform="rotate(-45 32.933 64.356)" data-original="#ff9566"></ellipse><path fill="#ff9566" d="M79.62 99.8a49.49 49.49 0 0 0-9.33-3.39V79.87a6.35 6.35 0 0 0-12.69 0v16.55a53.48 53.48 0 0 0-9.36 3.38c0 .39 3.09 10 15.81 10s15.62-9.63 15.57-10z" data-original="#ff9566"></path><path fill="#f7a379" d="M64 88.55c26.74 0 25.56-23.17 25.56-27V45.13c0-23.6-18.33-17.83-25.61-17.83s-25.62-5.77-25.62 17.83v16.62c0 4.64-1.07 26.8 25.67 26.8z" data-original="#f7a379"></path><g fill="#6b1818"><path d="M83.87 82.85a22.74 22.74 0 0 0 5.4-9.1 7.84 7.84 0 0 0 3.07.61 10 10 0 0 0 1.55-.12 13.32 13.32 0 0 0 7.2-3.84c4.39-4.39 5.25-10.67 1.92-14-2.13-2.13-5.47-2.54-8.74-1.41a85.31 85.31 0 0 0 2.05-15.89c0-7.22-6.22-18.73-18.6-23.88q.07-.68.07-1.37a13.74 13.74 0 1 0-27.49 0 13.54 13.54 0 0 0 .08 1.43c-12.19 5.15-18.7 16.48-18.7 23.09 0 4.24 1.07 11 2.11 16.65-3.3-1.15-6.66-.76-8.8 1.39-3.33 3.33-2.47 9.61 1.92 14a12.74 12.74 0 0 0 8.74 3.95 8.08 8.08 0 0 0 2.88-.52 22.13 22.13 0 0 0 5.33 9 23.42 23.42 0 0 0 12.47 6.27v6.25a52.35 52.35 0 0 0-25.92 17 4.4 4.4 0 0 0 .11 5.57c6.33 7.37 21.84 9.94 33.86 9.94s27.55-3 33.15-10a4.38 4.38 0 0 0 0-5.44 52.3 52.3 0 0 0-26-17.1v-6.21a23.29 23.29 0 0 0 12.34-6.27zm13.86-26a4.81 4.81 0 0 1 3.49 1.32c2.34 2.34 1.48 7-1.92 10.41a10.77 10.77 0 0 1-5.8 3.13 5.77 5.77 0 0 1-3.5-.43c.2-.88.36-1.73.48-2.55 1.34-1.8 4.84-5.71 7.64-5.71a1.27 1.27 0 0 0 0-2.54c-2.72 0-5.38 2-7.27 3.94v-4.34a10.25 10.25 0 0 1 6.88-3.22zm-44.89-43a11.21 11.21 0 1 1 22.41 0v.45A36.23 36.23 0 0 0 64 12.57a35.19 35.19 0 0 0-11.13 1.76c-.01-.16-.03-.33-.03-.49zm-18.62 24.5c0-7 10.13-23.24 29.78-23.24 19.83 0 29.78 15.38 29.78 24 0 5.14-1.27 12.07-2.43 17.32l-.53.35V45.13c0-7.37-1.79-12.73-5.32-15.95-5.08-4.62-12.48-3.92-17.88-3.4-1.44.14-2.68.25-3.69.25s-2.25-.12-3.69-.25c-5.4-.51-12.8-1.21-17.88 3.4-3.53 3.21-5.32 8.58-5.32 15.95V56.7l-.42-.27c-1.09-5.83-2.4-13.58-2.4-18.08zM28.7 68.6c-3.4-3.4-4.26-8.07-1.92-10.41s6.89-1.5 10.28 1.8v4.41c-1.84-1.89-4.45-3.91-7.15-3.91a1.27 1.27 0 0 0 0 2.54c2.79 0 6.18 3.89 7.48 5.69.11.85.27 1.74.47 2.66-2.51 1.14-6.29.09-9.16-2.78zm10.9-6.32V45.13c0-6.62 1.51-11.36 4.49-14.07C46.83 28.57 50.61 28 54.27 28c2 0 4 .19 5.75.35 1.44.14 2.8.27 3.93.27s2.48-.13 3.93-.27c4.93-.47 11.68-1.11 15.93 2.76 3 2.71 4.49 7.44 4.49 14.07V62c0 3.13.12 12.65-6.23 19.05C78 85.19 71.9 87.28 64 87.28c-8.07 0-14.24-2.09-18.34-6.21-6.15-6.19-6.08-15.35-6.06-18.79zm-7.15 54a1.86 1.86 0 0 1 0-2.35 44.59 44.59 0 0 1 8-7.8 26 26 0 0 1 1.31 8.25 26.6 26.6 0 0 1-1 7.16 21 21 0 0 1-8.31-5.23zm10.73 6.12a29.18 29.18 0 0 0 1.11-8 28.32 28.32 0 0 0-1.69-9.8 52.57 52.57 0 0 1 4.95-3 15.52 15.52 0 0 0 2.45 3.74c2.32 2.61 6.65 5.71 14 5.71s11.5-3 13.77-5.55a15.05 15.05 0 0 0 2.54-3.9 52.7 52.7 0 0 1 5 3 28.35 28.35 0 0 0-1.68 9.76 29.13 29.13 0 0 0 1.14 8.14 68.59 68.59 0 0 1-19 2.79 72.15 72.15 0 0 1-22.59-2.86zm52.36-8.4a1.87 1.87 0 0 1 0 2.29c-1.68 2.1-4.57 3.93-8.33 5.39a26.53 26.53 0 0 1-1-7.3 26 26 0 0 1 1.3-8.21 44.57 44.57 0 0 1 8.03 7.83zM70.1 97.67a49.08 49.08 0 0 1 8 2.8c-.94 2.2-4.36 8-14 8s-13.26-5.85-14.24-8.06h.05a54.29 54.29 0 0 1 7.93-2.76 1.27 1.27 0 0 0 1.08-1.25v-6.9a42.92 42.92 0 0 0 5.13.3 41.35 41.35 0 0 0 5-.3v6.9a1.27 1.27 0 0 0 1.05 1.27z" fill="#6b1818" data-original="#6b1818"></path><ellipse cx="53.16" cy="56.25" rx="3.51" ry="3.49" fill="#6b1818" data-original="#6b1818"></ellipse><ellipse cx="74.74" cy="56.25" rx="3.47" ry="3.45" fill="#6b1818" data-original="#6b1818"></ellipse><path d="M58 46.69a1.27 1.27 0 0 0 1-2.34c-3.49-1.46-9.66-.51-12 1.84A1.27 1.27 0 0 0 48.74 48c1.5-1.52 6.54-2.44 9.26-1.31zM69.93 46.68c2.8-1.21 7.65-.28 9.22 1.3a1.27 1.27 0 1 0 1.79-1.79c-2.22-2.22-8.08-3.54-12-1.83a1.27 1.27 0 1 0 1 2.33zM69.32 71.54a1.27 1.27 0 1 0-2.25-1.17 4.05 4.05 0 0 1-6.86 0A1.27 1.27 0 0 0 58 71.54a6.58 6.58 0 0 0 11.36 0z" fill="#6b1818" data-original="#6b1818"></path></g></g></g></svg>