<svg xmlns="http://www.w3.org/2000/svg" version="1.1" xmlns:xlink="http://www.w3.org/1999/xlink" xmlns:svgjs="http://svgjs.com/svgjs" width="512" height="512" x="0" y="0" viewBox="0 0 512 512" style="enable-background:new 0 0 512 512" xml:space="preserve" class=""><g><path d="M464.867 257.065h-2.487c-3.258-16.957-11.945-32.003-24.169-43.27-9.139 32.698-26.566 62.665-51.227 87.327l-50.211 50.21h128.094c25.831 0 47.133-20.9 47.133-47.133 0-26.066-21.073-47.134-47.133-47.134zM320.267 415.598H192.288c-8.284 0-15 6.716-15 15s6.716 15 15 15h.512V497c0 8.284 6.716 15 15 15h96.4c8.284 0 15-6.716 15-15v-51.402h1.066c8.284 0 15-6.716 15-15s-6.715-15-14.999-15zM166.281 278.432a281.111 281.111 0 0 1-3.566-9.567h-26.599a173.032 173.032 0 0 0 10.114 11.043l41.654 41.654a274.586 274.586 0 0 1-21.603-43.13zM201.651 9.532c-24.027 8.729-45.382 23.074-62.472 41.439a108.766 108.766 0 0 1 32.682 8.819c8.155-17.882 18.114-34.681 29.79-50.258zM365.267 175.667c0 35.399-6.574 69.967-19.54 102.744a274.552 274.552 0 0 1-21.609 43.149l41.652-41.652c32.133-32.133 49.83-74.86 49.83-120.31 0-68.929-43.925-127.787-105.251-150.066 14.489 19.33 26.339 40.539 35.372 63.368 12.969 32.782 19.546 67.358 19.546 102.767zM254.933 191.731c0-26.065-21.073-47.133-47.133-47.133h-2.487c-7.024-36.56-39.255-64.267-77.862-64.267-38.573 0-70.798 27.703-77.828 64.267h-2.49C21.075 144.598 0 165.804 0 191.731c0 26.27 21.362 47.133 47.133 47.133H207.8c25.831.001 47.133-20.9 47.133-47.133z" fill="#000000" data-original="#000000"></path><path d="M228.255 117.351c32.636 8.985 56.678 38.928 56.678 74.38 0 42.531-34.602 77.133-77.133 77.133h-13.021a243.916 243.916 0 0 0 29.089 52.465h64.267c30.929-42.425 47.132-93.704 47.132-145.663 0-62.868-23.689-124.715-68.469-171.086a15.019 15.019 0 0 0-21.596 0c-20.3 21.021-36.245 45.225-47.632 71.251 13.223 11.059 23.851 25.224 30.685 41.52zM208.867 351.329h30v34.269h-30zM273.133 351.329h30v34.269h-30z" fill="#000000" data-original="#000000"></path></g></svg>