<svg xmlns="http://www.w3.org/2000/svg" version="1.1" xmlns:xlink="http://www.w3.org/1999/xlink" xmlns:svgjs="http://svgjs.com/svgjs" width="512" height="512" x="0" y="0" viewBox="0 0 512 512" style="enable-background:new 0 0 512 512" xml:space="preserve" class=""><g><circle cx="256" cy="256" r="248.5" style="" fill="#e8edf2" data-original="#e8edf2" class=""></circle><path d="M256 7.5c-6.733 0-13.402.277-20 .803C363.889 18.489 464.5 125.491 464.5 256S363.889 493.511 236 503.697c6.598.525 13.267.803 20 .803 137.243 0 248.5-111.257 248.5-248.5S393.243 7.5 256 7.5z" style="" fill="#d9e7ec" data-original="#d9e7ec"></path><path d="M20.926 336.749C54.445 434.35 147.026 504.5 256 504.5s201.555-70.15 235.074-167.751H20.926z" style="" fill="#fed402" data-original="#fed402"></path><path d="M491.074 336.749h-39.997C419.628 428.317 336.188 495.717 236 503.697c.016.001.037.009.053.011 6.58.523 13.232.792 19.947.792 108.974 0 201.555-70.15 235.074-167.751z" style="" fill="#fac600" data-original="#fac600"></path><path d="M69.874 420.624h372.252c21.432-24.215 38.22-52.635 48.948-83.876H20.926c10.729 31.241 27.517 59.661 48.948 83.876z" style="" fill="#528fd8" data-original="#528fd8"></path><path d="M451.077 336.749c-10.728 31.237-27.502 59.663-48.933 83.876h39.982c21.432-24.215 38.22-52.635 48.948-83.876h-39.997z" style="" fill="#0473ce" data-original="#0473ce"></path><path d="M250.805 192.275v-57.892l39.14 56.677c.726 1.048 1.503.535 1.503-.74l-.542-56.045M220.552 134.275v58M209.405 98.9l13.193-56.665c.28-1.082 1.731-1.281 2.291-.314l27.659 51.112M213.12 87.337l32.791-4.459M137.195 138.119l-22.039-52.994c-.503-1.25.981-2.353 2.033-1.513l44.398 38.256c.987.788 2.408-.138 2.084-1.359l-16.986-55.903c-.345-1.302 1.263-2.214 2.204-1.251l39.691 41.633M394.72 83.584l-19.151-14.82-35.173 45.451 19.151 14.82M375.721 105.217 357.982 91.49M292.76 39.927l-12.244 53.94M324.254 75.874c-3.433 15.124-14.543 25.185-27.913 22.395-4.45-.929-15.917-3.486-15.917-3.486l12.347-54.913 15.545 3.529c14.608 3.315 19.371 17.352 15.938 32.475zM249.838 290.13l22.905-60.141c.468-1.144 2.088-1.146 2.558-.003l22.697 60.143M256.095 277.811h35.762M348.976 290.13v-60.886l41.165 59.609c.763 1.103 1.581.562 1.581-.779l-.57-58.944M134.438 229.13v61M167.252 229.899l-30.862 28.367 33.027 31.864M322.088 229.13v61M447.29 229.408h-25.468v60.443h25.468M445.412 259.63h-23.59M64.71 229.13v41.975c0 7.148 3.546 11.961 9.57 15.81 2.934 1.874 6.639 3.21 11.244 3.216 3.988.005 7.321-.918 10.077-2.306 7.02-3.535 11.496-8.904 11.496-16.764V229.13M202.289 261.016l25.624 29.114M194.933 229.13v61M227.913 244.983c0 8.755-7.677 15.853-16.75 15.853-4.5 0-16.153.07-16.153.07V229.13h16.153c9.073 0 16.75 7.097 16.75 15.853zM69.874 420.624h372.252M491.074 336.749H20.926" style="stroke-width:15;stroke-linecap:round;stroke-linejoin:round;stroke-miterlimit:10;" fill="none" stroke="#000000" stroke-width="15" stroke-linecap="round" stroke-linejoin="round" stroke-miterlimit="10" data-original="#000000" class=""></path><path d="M406.029 57.883C364.338 26.263 312.36 7.5 256 7.5 118.757 7.5 7.5 118.757 7.5 256c0 88.466 46.228 166.135 115.845 210.169M154.547 482.914C185.525 496.786 219.861 504.5 256 504.5c137.243 0 248.5-111.257 248.5-248.5 0-68.293-27.549-130.151-72.139-175.069" style="stroke-width:15;stroke-linecap:round;stroke-linejoin:round;stroke-miterlimit:10;" fill="none" stroke="#000000" stroke-width="15" stroke-linecap="round" stroke-linejoin="round" stroke-miterlimit="10" data-original="#000000" class=""></path></g></svg>