<svg xmlns="http://www.w3.org/2000/svg" version="1.1" xmlns:xlink="http://www.w3.org/1999/xlink" xmlns:svgjs="http://svgjs.com/svgjs" width="512" height="512" x="0" y="0" viewBox="0 0 512 512" style="enable-background:new 0 0 512 512" xml:space="preserve" class=""><g><path d="M437.02 74.98C388.668 26.63 324.379 0 256 0S123.332 26.629 74.98 74.98C26.63 123.332 0 187.621 0 256c0 68.383 26.629 132.668 74.98 181.02C123.332 485.37 187.621 512 256 512s132.668-26.629 181.02-74.98C485.37 388.668 512 324.383 512 256c0-68.379-26.629-132.668-74.98-181.02zm-70.293 256.387c9.761 9.766 9.761 25.594 0 35.356-4.883 4.882-11.282 7.324-17.68 7.324s-12.797-2.442-17.68-7.324L256 291.355l-75.367 75.372c-4.883 4.878-11.281 7.32-17.68 7.32s-12.797-2.442-17.68-7.32c-9.761-9.766-9.761-25.594 0-35.356L220.645 256l-75.372-75.367c-9.761-9.766-9.761-25.594 0-35.356 9.766-9.765 25.594-9.765 35.356 0L256 220.645l75.367-75.368c9.766-9.761 25.594-9.765 35.356 0 9.765 9.762 9.765 25.59 0 35.356L291.355 256zm0 0" fill="#000000" data-original="#000000" class=""></path></g></svg>