<svg xmlns="http://www.w3.org/2000/svg" version="1.1" xmlns:xlink="http://www.w3.org/1999/xlink" xmlns:svgjs="http://svgjs.com/svgjs" width="512" height="512" x="0" y="0" viewBox="0 0 512 512" style="enable-background:new 0 0 512 512" xml:space="preserve" class=""><g><linearGradient id="a" x1="256" x2="256" y1="512" y2="0" gradientUnits="userSpaceOnUse"><stop offset="0" stop-color="#fd5900"></stop><stop offset="1" stop-color="#ffde00"></stop></linearGradient><linearGradient id="b" x1="256" x2="256" y1="392.353" y2="91" gradientUnits="userSpaceOnUse"><stop offset="0" stop-color="#ffe59a"></stop><stop offset="1" stop-color="#ffffd5"></stop></linearGradient><circle cx="256" cy="256" r="256" fill="url(#a)" data-original="url(#a)"></circle><path fill="url(#b)" d="M412.924 205.012a15 15 0 0 0-12.108-10.209l-90.771-13.19-40.594-82.252a15 15 0 0 0-26.902.001l-40.594 82.252-90.771 13.19a15 15 0 0 0-8.313 25.585l65.683 64.024-15.506 90.404a15.001 15.001 0 0 0 21.764 15.813L256 347.947l81.188 42.683a15.002 15.002 0 0 0 21.765-15.813l-15.506-90.404 65.682-64.024a15.003 15.003 0 0 0 3.795-15.377z" data-original="url(#b)"></path></g></svg>