<svg xmlns="http://www.w3.org/2000/svg" version="1.1" xmlns:xlink="http://www.w3.org/1999/xlink" xmlns:svgjs="http://svgjs.com/svgjs" width="512" height="512" x="0" y="0" viewBox="0 0 512 512" style="enable-background:new 0 0 512 512" xml:space="preserve"><g><linearGradient id="a" x1="256" x2="256" y1="512" y2="0" gradientUnits="userSpaceOnUse"><stop offset="0" stop-color="#ffe59a"></stop><stop offset="1" stop-color="#ffffd5"></stop></linearGradient><linearGradient id="b" x1="256" x2="256" y1="105" y2="407" gradientUnits="userSpaceOnUse"><stop offset="0" stop-color="#fd5900"></stop><stop offset="1" stop-color="#ffde00"></stop></linearGradient><circle cx="256" cy="256" r="256" fill="url(#a)" data-original="url(#a)"></circle><path fill="url(#b)" d="M274.138 224.001 256 187.248l-18.146 36.753a8.867 8.867 0 0 1-6.688 4.858l-40.552 5.898 29.354 28.607a8.88 8.88 0 0 1 2.55 7.859l-6.931 40.396 36.284-19.066c1.292-.685 2.706-1.024 4.129-1.024s2.836.338 4.129 1.024l36.284 19.066-6.931-40.396a8.88 8.88 0 0 1 2.55-7.859l29.354-28.607-40.561-5.898a8.866 8.866 0 0 1-6.687-4.858zM256 105c-83.263 0-151 67.737-151 151s67.737 151 151 151 151-67.737 151-151-67.737-151-151-151zm90.68 129.913-38.904 37.915 9.186 53.528a8.876 8.876 0 0 1-3.531 8.683 8.858 8.858 0 0 1-9.351.677L256 310.448l-48.081 25.268c-2.958 1.596-6.601 1.327-9.351-.677a8.879 8.879 0 0 1-3.531-8.683l9.186-53.528-38.904-37.915a8.886 8.886 0 0 1-2.247-9.099 8.887 8.887 0 0 1 7.173-6.046l53.745-7.815 24.045-48.705c1.492-3.036 4.58-4.953 7.963-4.953s6.471 1.917 7.963 4.953l24.036 48.705 53.754 7.815a8.879 8.879 0 0 1 4.929 15.145z" data-original="url(#b)"></path></g></svg>