<svg xmlns="http://www.w3.org/2000/svg" version="1.1" xmlns:xlink="http://www.w3.org/1999/xlink" xmlns:svgjs="http://svgjs.com/svgjs" width="512" height="512" x="0" y="0" viewBox="0 0 512 512" style="enable-background:new 0 0 512 512" xml:space="preserve" class=""><g><path d="M215.4 66.3c-3.3 0-6.3.2-9.2 0-15.3-1.2-28.8-13.6-30.5-28.1-2-16.6 6.8-31.4 22.1-36.7 2.1-.8 4.4-1.2 6.6-1.2 33.2-.1 66.5-.6 99.7-.1 17.8.3 32.2 14.6 32.6 32.4.4 14.4-12.5 33.4-32.4 33.7-2.4 0-4.8.5-7.8.8 0 4.2-.2 8.2.1 12.1.4 1.5 1.5 2.7 2.9 3.2 33 6.6 62.3 21.4 89.5 40.7.3.1.7.2 1 .2 7.1-6.8 14.3-14 21.9-20.7 9.8-8.7 21.9-9.4 32.3-2.6 13 8.6 16 25.3 6.3 37.5-5.7 7.1-12 13.6-18.3 20.1-3.2 3.4-3.5 6-.6 10.2 28.4 40.5 42.7 85.3 41.1 135.1-3.2 98.3-73.5 183-169.5 204-117.1 26-233.1-47.9-259-164.9-.8-3.6-1.5-7.3-2.1-10.9C23.3 221.2 91.9 114.8 200.5 85.4c.9-.2 1.8-.5 2.7-.7 13-3.5 13-3.5 12.2-18.4zm200.1 229.1c2.9-81.8-65.9-160-159.3-160.3-88.4-.3-159.9 73.4-160.1 159.4-.2 88.7 74.2 160.4 159.5 160.6 89.6.2 162.8-75.9 159.9-159.7z" fill="#000000" data-original="#000000" class=""></path><path d="m282.3 289.2 74.2-74.2c5.7-5.5 5.8-14.5.4-20.2-5.5-5.7-14.5-5.8-20.2-.4l-.4.4-74.2 74.2c-14.3-3.1-28.5 5.9-31.6 20.2s5.9 28.5 20.2 31.6 28.5-5.9 31.6-20.2c.9-3.7.9-7.6 0-11.4z" fill="#000000" data-original="#000000" class=""></path></g></svg>