<svg xmlns="http://www.w3.org/2000/svg" version="1.1" xmlns:xlink="http://www.w3.org/1999/xlink" xmlns:svgjs="http://svgjs.com/svgjs" width="512" height="512" x="0" y="0" viewBox="0 0 24 24" style="enable-background:new 0 0 512 512" xml:space="preserve" class=""><g><g fill="#000" fill-rule="evenodd" clip-rule="evenodd"><path d="M12 2a5 5 0 1 0 0 10 5 5 0 0 0 0-10zM9 13c-1.663 0-3.262.758-4.199 1.9-.475.58-.81 1.297-.839 2.092-.03.812.263 1.604.868 2.295C6.302 20.972 8.653 22 12 22s5.698-1.028 7.17-2.713c.605-.691.898-1.483.868-2.295-.03-.795-.364-1.512-.84-2.092C18.263 13.76 16.664 13 15 13z" fill="#000000" data-original="#000000"></path></g></g></svg>