<svg xmlns="http://www.w3.org/2000/svg" version="1.1" xmlns:xlink="http://www.w3.org/1999/xlink" xmlns:svgjs="http://svgjs.com/svgjs" width="512" height="512" x="0" y="0" viewBox="0 0 128 128" style="enable-background:new 0 0 512 512" xml:space="preserve"><g><g data-name="Layer 8"><path fill="#87304b" d="M79.47 9.31c-2.54-.42-4.5 2.18-4.74 3.52C70.69 7.19 55 1.69 49.64 5s.8 9 .8 9S39 9.42 33.78 14s-.83 13.74-.83 21.73v26h62.1V36.44c0-10.44-7.35-25.76-15.58-27.13z" data-original="#87304b"></path><path fill="#349996" d="M63.94 92.87c-10.79 0-25 8-32.53 17.64a3.13 3.13 0 0 0 .07 4c10.9 12.7 55 12.64 65.06 0a3.13 3.13 0 0 0 0-3.86C89 100.9 74.73 92.87 63.94 92.87z" data-original="#349996"></path><ellipse cx="95.05" cy="61.69" fill="#e57e5a" rx="9.99" ry="7.27" transform="rotate(-45 95.048 61.71)" data-original="#e57e5a"></ellipse><ellipse cx="32.95" cy="61.69" fill="#e57e5a" rx="7.27" ry="9.99" transform="rotate(-45 32.944 61.701)" data-original="#e57e5a"></ellipse><path fill="#e57e5a" d="M70.29 93.76V77.22a6.35 6.35 0 0 0-12.69 0v16.54c-1.21.19 6.45 7.68 6.45 7.68s7.52-7.44 6.24-7.68z" data-original="#e57e5a"></path><path fill="#ff9566" d="M64 85.89c26.74 0 25.56-23.17 25.56-27V42.47C89.56 28.33 73.94 26 63.95 26s-25.62 2.33-25.62 16.47v16.62c0 4.64-1.07 26.8 25.67 26.8z" data-original="#ff9566"></path><path fill="#349996" d="m64 101.44 8.13 3.28s1.21-7.24 2-9.89-2.35-3.77-3.92-1.08-6.21 7.69-6.21 7.69z" data-original="#349996"></path><path fill="#349996" d="m64 101.44-8.13 3.28s-1.21-7.24-2-9.89 2.35-3.77 3.92-1.08 6.21 7.69 6.21 7.69z" data-original="#349996"></path><g fill="#6b1818"><path d="M83.87 80.19a22.74 22.74 0 0 0 5.41-9.11 8 8 0 0 0 3.08.6 12.74 12.74 0 0 0 8.74-3.95c4.39-4.39 5.25-10.67 1.92-14a7.67 7.67 0 0 0-6.69-1.91V36.44c0-11.29-7.83-26.91-16.64-28.38a5.47 5.47 0 0 0-5.26 2.51C68.73 5.15 54.48.55 49 3.89a5.27 5.27 0 0 0-2.79 4A6.66 6.66 0 0 0 47 11.6c-4-1.02-10.34-1.85-14.06 1.4-4 3.55-3.08 9.38-2.13 15a48.09 48.09 0 0 1 .87 7.68v16.1A7.62 7.62 0 0 0 25 53.73c-3.33 3.33-2.47 9.61 1.92 14a12.74 12.74 0 0 0 8.74 3.95 8.09 8.09 0 0 0 2.88-.51 22.13 22.13 0 0 0 5.33 9 23.42 23.42 0 0 0 12.47 6.27V91a3.25 3.25 0 0 0-2.08.16 3 3 0 0 0-1.76 2.75 52.66 52.66 0 0 0-22.08 15.79 4.4 4.4 0 0 0 .11 5.57c6.33 7.37 21.84 9.94 33.86 9.94h1.51c11.62-.21 26-2.95 31.64-10a4.38 4.38 0 0 0 0-5.44A52.61 52.61 0 0 0 75.6 94a3 3 0 0 0-1.76-2.82 3.27 3.27 0 0 0-2.28-.1v-4.62a23.29 23.29 0 0 0 12.31-6.27zm13.86-26a4.81 4.81 0 0 1 3.49 1.32c2.34 2.34 1.48 7-1.92 10.41-2.94 2.94-6.83 4-9.34 2.68.2-.88.36-1.73.48-2.55 1.34-1.8 4.84-5.71 7.64-5.71a1.27 1.27 0 0 0 0-2.54c-2.72 0-5.38 2-7.27 3.94v-4.32a10.25 10.25 0 0 1 6.92-3.21zM34.62 14.92C38.38 11.62 47 14 50 15.18a1.27 1.27 0 0 0 1.33-2.11c-.73-.68-2.78-3-2.59-4.91a2.84 2.84 0 0 1 1.58-2.1c4.57-2.78 19.44 2 23.4 7.51A1.27 1.27 0 0 0 76 13c.12-.71 1.53-2.78 3.28-2.49 7.34 1.22 14.52 15.85 14.52 25.88V52.5a13.52 13.52 0 0 0-3 1.62V42.47c0-11.43-9.55-17.72-26.88-17.72S37.06 31 37.06 42.47V54a13.51 13.51 0 0 0-2.85-1.56V35.7a50 50 0 0 0-.91-8.1c-.89-5.4-1.67-10.06 1.32-12.68zm-5.92 51c-3.4-3.4-4.26-8.07-1.92-10.41a5.19 5.19 0 0 1 4.61-1.21 10.72 10.72 0 0 1 5.67 3v4.43c-1.84-1.89-4.45-3.91-7.15-3.91a1.27 1.27 0 0 0 0 2.54c2.79 0 6.18 3.89 7.48 5.69.11.85.27 1.75.47 2.66-2.51 1.15-6.29.1-9.16-2.77zm10.9-6.32V42.47c0-13.21 15.25-15.18 24.34-15.18s24.34 2 24.34 15.18v16.88c0 3.13.12 12.65-6.23 19.05C78 82.53 71.9 84.62 64 84.62c-8.07 0-14.24-2.09-18.34-6.21-6.15-6.19-6.08-15.34-6.06-18.79zm15.67 33.92a.57.57 0 0 1 .23 0c.33 0 .8.22 1.2.92a50.76 50.76 0 0 0 5.17 6.55l-5 2c-.41-2.3-1.19-6.54-1.8-8.5-.07-.21-.18-.8.2-.97zm-22.82 20.13a1.86 1.86 0 0 1 0-2.35A49.89 49.89 0 0 1 53 96.44c.75 3.08 1.65 8.43 1.66 8.49a1.27 1.27 0 0 0 1.73 1l6.39-2.58v19.37c-13.78-.26-25.78-3.78-30.33-9.07zm42.62-17.14a49.84 49.84 0 0 1 20.47 14.87 1.87 1.87 0 0 1 0 2.29c-4.16 5.22-15.82 8.76-29.7 9h-.54v-19.35l6.39 2.58a1.27 1.27 0 0 0 1.73-1c.02-.03.9-5.31 1.65-8.39zm-2.25-3c.38.17.23.76.17.94-.61 2-1.4 6.19-1.8 8.5l-5-2a50.71 50.71 0 0 0 5.17-6.55c.54-.88 1.16-1 1.46-.88zM69 93.4a55.58 55.58 0 0 1-5 6.16 51.49 51.49 0 0 1-5.15-6.44v-6.26a42.92 42.92 0 0 0 5.13.3 41.35 41.35 0 0 0 5-.3z" fill="#6b1818" data-original="#6b1818"></path><ellipse cx="53.16" cy="53.59" rx="3.51" ry="3.49" fill="#6b1818" data-original="#6b1818"></ellipse><ellipse cx="74.74" cy="53.59" rx="3.47" ry="3.45" fill="#6b1818" data-original="#6b1818"></ellipse><path d="M58.47 43.83a1.27 1.27 0 1 0 0-2.54h-.31c-3.77 0-9 0-11.21 2.24a1.27 1.27 0 0 0 1.79 1.8c1.5-1.5 6.47-1.49 9.41-1.49zM69.42 43.83h.31c3 0 7.92 0 9.41 1.49a1.27 1.27 0 1 0 1.79-1.79c-2.24-2.24-7.44-2.25-11.21-2.24h-.31a1.27 1.27 0 1 0 0 2.54zM71.66 71.11a1.29 1.29 0 0 0-.31-1.79 1.25 1.25 0 0 0-1.75.31s-1.24 1.43-5.47.83a9.87 9.87 0 0 1-6.4-3.78 1.27 1.27 0 0 0-2.12 1.4A12.27 12.27 0 0 0 63.77 73a16.51 16.51 0 0 0 2.3.17c4.06-.02 5.42-1.82 5.59-2.06z" fill="#6b1818" data-original="#6b1818"></path></g></g></g></svg>