<svg xmlns="http://www.w3.org/2000/svg" version="1.1" xmlns:xlink="http://www.w3.org/1999/xlink" xmlns:svgjs="http://svgjs.com/svgjs" width="512" height="512" x="0" y="0" viewBox="0 0 128 128" style="enable-background:new 0 0 512 512" xml:space="preserve" class=""><g><path fill="#87304b" d="M32.95 60.37v-26C32.95 26.31 44 9.86 64 9.86s31.05 15.59 31.05 25.25v25.26z" data-original="#87304b"></path><path fill="#663434" d="M63.95 91.55c-10.79 0-25 8-32.53 17.64a3.13 3.13 0 0 0 .07 4c10.9 12.7 55 12.64 65.06 0a3.13 3.13 0 0 0 0-3.86C89 99.58 74.73 91.55 63.95 91.55z" data-original="#663434"></path><ellipse cx="95.05" cy="60.37" fill="#e57e5a" rx="9.99" ry="7.27" transform="rotate(-45 95.047 60.38)" data-original="#e57e5a"></ellipse><ellipse cx="32.95" cy="60.37" fill="#e57e5a" rx="7.27" ry="9.99" transform="rotate(-45 32.939 60.383)" data-original="#e57e5a"></ellipse><path fill="#e57e5a" d="M74.07 93.51c-1.24-.31-2.5-.88-3.78-1.08V75.89a6.35 6.35 0 0 0-12.69 0v16.55c-1.21.19-2.4.74-3.57 1 0 .39-.07 1.85-.07 2.25a10.09 10.09 0 0 0 20.18 0c0-.36-.03-1.81-.07-2.18z" data-original="#e57e5a"></path><path fill="#ff9566" d="M64 84.57c26.74 0 25.56-23.17 25.56-27V41.15a25.61 25.61 0 1 0-51.23 0v16.61c0 4.65-1.07 26.81 25.67 26.81z" data-original="#ff9566"></path><path fill="#87304b" d="M46.55 22.46c15.18 15.18 36.76 15.11 48.7 3.17 10-10-.14-20.27-4.26-20.27 0 0-6.57 9.19-21.66 4.89C57.83 7 46.55 15.13 46.55 22.46z" data-original="#87304b"></path><g fill="#6b1818"><path d="M83.87 78.87a22.74 22.74 0 0 0 5.4-9.1 8 8 0 0 0 3.08.59 12.74 12.74 0 0 0 8.74-3.95c4.39-4.39 5.25-10.67 1.92-14a7.67 7.67 0 0 0-6.69-1.91V35.11a19.41 19.41 0 0 0-1.63-7.24c.5-.43 1-.88 1.46-1.35 6-6 4.91-11.82 3.7-14.73-1.91-4.61-6.13-7.71-8.85-7.71a1.28 1.28 0 0 0-1 .53C89.7 5 83.65 13 69.67 9A21.11 21.11 0 0 0 58 9.09C40.92 11.94 31.68 26.5 31.68 34.37v16.12A7.67 7.67 0 0 0 25 52.41c-3.33 3.33-2.47 9.61 1.92 14a12.74 12.74 0 0 0 8.74 3.95 8.09 8.09 0 0 0 2.88-.52 22.13 22.13 0 0 0 5.33 9 23.42 23.42 0 0 0 12.47 6.27v6.25a52.34 52.34 0 0 0-25.92 17 4.4 4.4 0 0 0 .11 5.57c6.33 7.37 21.46 9.94 33.48 9.94 12.54 0 27.93-3 33.54-10a4.38 4.38 0 0 0 0-5.44 52.31 52.31 0 0 0-26-17.1v-6.19a23.29 23.29 0 0 0 12.32-6.27zm13.86-26a4.81 4.81 0 0 1 3.49 1.32c2.34 2.34 1.48 7-1.92 10.41-2.94 2.94-6.83 4-9.34 2.69.2-.88.36-1.74.48-2.56 1.34-1.8 4.83-5.71 7.64-5.71a1.27 1.27 0 1 0 0-2.54c-2.72 0-5.38 2-7.27 3.94v-4.34a10.25 10.25 0 0 1 6.92-3.2zm-3.95-17.76v16.07a13.52 13.52 0 0 0-3 1.62V41.15a26.71 26.71 0 0 0-1.72-9.44 30.3 30.3 0 0 0 3.54-2.2 16.47 16.47 0 0 1 1.18 5.6zM69 11.47C82.61 15.35 89.67 8.8 91.52 6.7c1.72.44 4.61 2.75 6 6.07 1.18 2.84 1.59 7.22-3.15 12a29.45 29.45 0 0 1-22.18 8.22 37.43 37.43 0 0 1-24.33-11c.21-2.52 2-5.26 4.85-7.41A18.68 18.68 0 0 1 69 11.47zm-34.78 22.9c0-4.77 4.77-13.92 14.11-19.2a11.92 11.92 0 0 0-3 6.64 26.8 26.8 0 0 0-8.24 19.34v11.57a13.47 13.47 0 0 0-2.85-1.54zM28.7 64.61c-3.4-3.4-4.26-8.07-1.92-10.41a4.81 4.81 0 0 1 3.49-1.32A10.2 10.2 0 0 1 37.06 56s0 3.57 0 4.4c-1.84-1.89-4.45-3.91-7.15-3.91a1.27 1.27 0 0 0 0 2.54c2.79 0 6.18 3.89 7.48 5.69.11.85.27 1.75.47 2.66-2.51 1.16-6.28.11-9.16-2.77zm10.9-6.32V41.15a24.25 24.25 0 0 1 6.92-17 39.85 39.85 0 0 0 25.54 11.3h1.53a33.31 33.31 0 0 0 13.22-2.7 24.19 24.19 0 0 1 1.48 8.34V58c0 3.13.12 12.65-6.23 19.05C78 81.21 71.9 83.3 64 83.3c-8.07 0-14.24-2.09-18.34-6.21-6.15-6.19-6.08-15.35-6.06-18.8zm55.94 51.76a1.87 1.87 0 0 1 0 2.29c-4.16 5.22-17.2 9-31.5 9s-26.91-3.6-31.6-9.06a1.85 1.85 0 0 1 0-2.35 49.89 49.89 0 0 1 20.25-14.7c0 7.12 5.09 11.84 11.35 11.84A11.4 11.4 0 0 0 75.4 95.31a49.82 49.82 0 0 1 20.14 14.75zM70.1 93.69c.67.1 2.52.72 2.75.79 0 5.34-3.94 10.06-8.8 10.06s-8.8-5-8.8-10.1c.21-.07 1.94-.65 2.54-.74a1.27 1.27 0 0 0 1.08-1.25v-6.9a42.94 42.94 0 0 0 5.13.3 41.33 41.33 0 0 0 5-.3v6.9a1.27 1.27 0 0 0 1.1 1.24z" fill="#6b1818" data-original="#6b1818"></path><ellipse cx="53.16" cy="52.27" rx="3.51" ry="3.49" fill="#6b1818" data-original="#6b1818"></ellipse><ellipse cx="74.74" cy="52.27" rx="3.47" ry="3.45" fill="#6b1818" data-original="#6b1818"></ellipse><path d="M58.16 41.28a1.27 1.27 0 1 0 .62-2.46c-4-1-9.84.7-12 3.52a1.27 1.27 0 1 0 2 1.52c1.55-1.97 6.42-3.32 9.38-2.58zM69.42 44.37a27.6 27.6 0 0 0 4.08-.44c2.15-.34 4.82-.76 5.65.07a1.27 1.27 0 0 0 1.79-1.8c-1.74-1.74-4.84-1.25-7.84-.78a25.86 25.86 0 0 1-3.69.41 1.27 1.27 0 0 0 0 2.54zM71.66 69.78a1.26 1.26 0 0 0-.33-1.78 1.28 1.28 0 0 0-1.76.3c-.06.08-1.52 2-5.62 2s-6.25-1.99-6.35-2.1a1.27 1.27 0 0 0-1.87 1.72c.11.12 2.8 3 8.21 3s7.63-3.01 7.72-3.14z" fill="#6b1818" data-original="#6b1818"></path></g></g></svg>