<svg xmlns="http://www.w3.org/2000/svg" version="1.1" xmlns:xlink="http://www.w3.org/1999/xlink" xmlns:svgjs="http://svgjs.com/svgjs" width="512" height="512" x="0" y="0" viewBox="0 0 128 128" style="enable-background:new 0 0 512 512" xml:space="preserve" class=""><g><g data-name="Layer 4"><path fill="#845730" d="M39.26 86.2a8.47 8.47 0 0 1-8.47-8.47V32.52C30.79 23.9 42.64 6.31 64 6.31S97.21 23 97.21 33.32v44.42a8.47 8.47 0 0 1-8.47 8.47z" data-original="#845730"></path><path fill="#349996" d="M63.95 16.88c13.3 0 25.49 7.88 25.49 20.83C95.17 20.05 78.45 9.58 64 9.58S33.2 19.89 38.51 37.3c0-12.49 12.28-20.42 25.44-20.42z" data-original="#349996"></path><path fill="#ca69cc" d="M63.95 90.59c-10.79 0-25 8-32.53 17.64a3.13 3.13 0 0 0 .07 4c10.9 12.7 55 12.64 65.06 0a3.13 3.13 0 0 0 0-3.86C89 98.62 74.73 90.59 63.95 90.59z" data-original="#ca69cc"></path><path fill="#993434" d="M90.58 102.14H37.24l4.25-3.25h44.9zM97.08 109.39H30.84l2.34-3.25h61.53zM90.58 116.64H37.24l-4.58-3.25h62.78z" data-original="#993434"></path><ellipse cx="95.05" cy="59.41" fill="#e57e5a" rx="9.99" ry="7.27" transform="rotate(-45 95.045 59.432)" data-original="#e57e5a"></ellipse><ellipse cx="32.95" cy="59.41" fill="#e57e5a" rx="7.27" ry="9.99" transform="rotate(-45 32.94 59.422)" data-original="#e57e5a"></ellipse><path fill="#e57e5a" d="M74.07 92.56c-1.24-.31-2.5-.88-3.78-1.08V74.93a6.35 6.35 0 0 0-12.69 0v16.55c-1.21.19-2.4.74-3.57 1 0 .39-.07 1.85-.07 2.25a10.09 10.09 0 1 0 20.18 0c0-.35-.03-1.8-.07-2.17z" data-original="#e57e5a"></path><path fill="#ff9566" d="M64 83.61c26.74 0 25.56-23.17 25.56-27V40.19c0-14.15-11.47-23.31-25.61-23.31S38.33 26 38.33 40.19V56.8c0 4.65-1.07 26.81 25.67 26.81z" data-original="#ff9566"></path><path fill="#845730" d="M64 14.58c-14.86 0-26.52 12.51-26.52 19.35s14.4.9 23.69.9c1.3 0 2.63-.54 2.81-3.1.18 2.56 1.51 3.1 2.81 3.1 9.29 0 23.69 5.95 23.69-.9S78.9 14.58 64 14.58z" data-original="#845730"></path><g fill="#6b1818"><path d="M88.74 87.47a9.75 9.75 0 0 0 9.74-9.74V67.51a14.46 14.46 0 0 0 2.62-2.06c4.39-4.39 5.25-10.67 1.92-14a7.09 7.09 0 0 0-4.54-2V33.32C98.48 23.17 87 5 64 5a35.84 35.84 0 0 0-25.5 10.27c-5.37 5.22-9 12.15-9 17.25v16.93a7.09 7.09 0 0 0-4.54 2c-3.33 3.33-2.47 9.61 1.92 14a14.73 14.73 0 0 0 2.62 2.08v10.2a9.75 9.75 0 0 0 9.74 9.74h17.09v3a52.35 52.35 0 0 0-25.92 17 4.4 4.4 0 0 0 .11 5.57c6.33 7.37 21.84 9.94 33.86 9.94h1.52c11.62-.21 26-2.94 31.64-10a4.38 4.38 0 0 0 0-5.44 52.31 52.31 0 0 0-26-17.1v-3zm7.2-9.74a7.21 7.21 0 0 1-7.2 7.2H71.56v-.75a23.29 23.29 0 0 0 12.31-6.27 22.74 22.74 0 0 0 5.4-9.1 8 8 0 0 0 3.08.59 10.83 10.83 0 0 0 3.58-.65zM72.85 93.52c0 6.08-3.94 10.06-8.8 10.06s-8.8-4.14-8.8-10.1c.21-.07 1.94-.65 2.54-.74a1.27 1.27 0 0 0 1.08-1.25v-6.9a42.93 42.93 0 0 0 5.13.3 41.34 41.34 0 0 0 5-.3v6.9a1.27 1.27 0 0 0 1.08 1.25c.68.1 2.54.71 2.77.78zM39.3 35.29a1.58 1.58 0 0 1-.51-1.35c0-6 10.92-18.08 25.25-18.08S89.25 27.9 89.25 33.93a1.58 1.58 0 0 1-.51 1.35c-1.6 1.34-6.87.4-11.52-.44a62.6 62.6 0 0 0-10.39-1.29c-.59 0-1.41 0-1.54-1.92a1.27 1.27 0 0 0-2.53 0c-.14 1.92-.95 1.92-1.54 1.92a62.6 62.6 0 0 0-10.39 1.29c-4.66.84-9.93 1.79-11.53.45zM64 13.31c-10.46 0-19.79 6.11-24.51 12.5A16.74 16.74 0 0 1 42 20.92c4.39-6 13.25-10.07 22.05-10.07s17.67 4 22.05 10.07a16.7 16.7 0 0 1 2.5 5C83.91 19.49 74.56 13.31 64 13.31zm-24.44 44V40.19c0-.68 0-1.34.1-2 2.79.71 6.93 0 11.57-.85a60.92 60.92 0 0 1 9.95-1.25 4 4 0 0 0 2.81-1 4 4 0 0 0 2.81 1 60.92 60.92 0 0 1 9.95 1.25 55.22 55.22 0 0 0 8.92 1.15 11.1 11.1 0 0 0 2.51-.25c.06.64.09 1.29.09 1.95v16.88c0 3.13.12 12.65-6.23 19.05C78 80.25 71.9 82.34 64 82.34c-8.08 0-14.24-2.09-18.34-6.21-6.15-6.19-6.08-15.35-6.06-18.79zm59.7 6.32c-2.94 2.94-6.83 4-9.34 2.67.2-.88.36-1.73.48-2.55 1.34-1.8 4.84-5.71 7.64-5.71a1.27 1.27 0 0 0 0-2.54c-2.72 0-5.38 2-7.27 3.94V55.14a10.25 10.25 0 0 1 6.9-3.22 4.81 4.81 0 0 1 3.49 1.32c2.4 2.34 1.54 7.01-1.86 10.41zM64 7.58c21.27 0 31.94 16.5 31.94 25.74V49.6a12.8 12.8 0 0 0-5.11 2.24V40.19c0-.77 0-1.52-.1-2.27 2.15-6.83 1.27-13.22-2.58-18.5C83.23 12.67 73.77 8.31 64 8.31s-19.19 4.36-24.1 11.11c-3.75 5.15-4.68 11.36-2.73 18a26.06 26.06 0 0 0-.15 2.77v11.58a12.76 12.76 0 0 0-5-2.16V32.52C32.06 25.06 42.93 7.58 64 7.58zM26.78 53.24a4.81 4.81 0 0 1 3.49-1.32A10.2 10.2 0 0 1 37.06 55V59.39c-1.84-1.89-4.45-3.91-7.15-3.91a1.27 1.27 0 0 0 0 2.54c2.79 0 6.18 3.89 7.48 5.69.11.85.26 1.74.47 2.65a5.87 5.87 0 0 1-3.37.37 10.78 10.78 0 0 1-5.8-3.13c-3.39-3.35-4.25-8.02-1.91-10.36zm12.48 31.69a7.21 7.21 0 0 1-7.2-7.2v-9a11.41 11.41 0 0 0 2 .53 10 10 0 0 0 1.55.12 7.9 7.9 0 0 0 2.88-.53 22.13 22.13 0 0 0 5.33 9 23.42 23.42 0 0 0 12.47 6.27v.75zm56.28 24.17a1.87 1.87 0 0 1 0 2.29c-4.16 5.22-15.82 8.76-29.7 9-15.09.27-28.52-3.36-33.4-9a1.85 1.85 0 0 1 0-2.35 49.81 49.81 0 0 1 20.25-14.75v.47a11.36 11.36 0 1 0 22.72 0v-.39a49.76 49.76 0 0 1 20.13 14.73z" fill="#6b1818" data-original="#6b1818"></path><ellipse cx="53.16" cy="51.31" rx="3.51" ry="3.49" fill="#6b1818" data-original="#6b1818"></ellipse><ellipse cx="74.74" cy="51.31" rx="3.47" ry="3.45" fill="#6b1818" data-original="#6b1818"></ellipse><path d="M47.84 45.48a1.27 1.27 0 0 0 .9-.37c1.26-1.3 5.32-1.25 8.26-1.21h1.47a1.27 1.27 0 1 0 0-2.54H57c-3.77 0-8-.1-10.08 2a1.27 1.27 0 0 0 .9 2.17zM69.42 43.91h1.47c2.94 0 7-.09 8.26 1.21a1.27 1.27 0 1 0 1.79-1.79c-2.05-2.05-6.32-2-10.08-2h-1.44a1.27 1.27 0 1 0 0 2.54zM57.6 67.25A1.27 1.27 0 0 0 55.73 69c.11.12 2.79 3 8.21 3s7.63-3 7.71-3.13a1.26 1.26 0 0 0-.33-1.74 1.28 1.28 0 0 0-1.76.3c-.06.08-1.52 2-5.62 2s-6.24-2.08-6.34-2.18z" fill="#6b1818" data-original="#6b1818"></path></g></g></g></svg>