<svg xmlns="http://www.w3.org/2000/svg" version="1.1" xmlns:xlink="http://www.w3.org/1999/xlink" xmlns:svgjs="http://svgjs.com/svgjs" width="512" height="512" x="0" y="0" viewBox="0 0 128 128" style="enable-background:new 0 0 512 512" xml:space="preserve" class=""><g><g data-name="Layer 19"><path fill="#c7b299" d="M63.92 92.38c-10.79 0-25 8-32.53 17.64a3.13 3.13 0 0 0 .07 4c10.9 12.7 55 12.64 65.06 0a3.13 3.13 0 0 0 0-3.86C89 100.41 74.7 92.38 63.92 92.38z" data-original="#c7b299"></path><path fill="#e57e5a" d="M70.26 93.27V76.72a6.35 6.35 0 0 0-12.69 0v16.55C56.36 93.46 64 99 64 99s7.54-5.53 6.26-5.73z" data-original="#e57e5a"></path><path fill="#845730" d="m64 99 8.13 5.18s1.21-7.24 2-9.89-2.35-3.77-3.92-1.08S64 99 64 99zM64 99l-8.13 5.18s-1.21-7.24-2-9.89 2.35-3.77 3.92-1.08S64 99 64 99zM36.76 61s-3.81-17.9-3.81-26S44 10.53 64 10.53s31.05 15.59 31.05 25.26S91.24 61 91.24 61z" data-original="#845730"></path><ellipse cx="95.05" cy="61.04" fill="#e57e5a" rx="9.99" ry="7.27" transform="rotate(-45 95.049 61.06)" data-original="#e57e5a"></ellipse><ellipse cx="32.95" cy="61.04" fill="#e57e5a" rx="7.27" ry="9.99" transform="rotate(-45 32.933 61.046)" data-original="#e57e5a"></ellipse><path fill="#ff9566" d="M64 85.24c26.74 0 25.56-23.17 25.56-27V41.82a25.61 25.61 0 0 0-51.23 0v16.62c0 4.64-1.07 26.8 25.67 26.8z" data-original="#ff9566"></path><path fill="#845730" d="M86.07 28.81c-26.37-5.92-56.19 6.71-56.19-10.17 0-11 11.52-14.12 15.65-14.12S95 9.28 86.07 28.81z" data-original="#845730"></path><g fill="#6b1818"><ellipse cx="53.16" cy="52.94" rx="3.51" ry="3.49" fill="#6b1818" data-original="#6b1818"></ellipse><ellipse cx="74.74" cy="52.94" rx="3.47" ry="3.45" fill="#6b1818" data-original="#6b1818"></ellipse><path d="M47.84 44.41a1.27 1.27 0 0 1-.9-2.17c1.93-1.93 5.83-1.79 9.27-1.66.79 0 1.56.06 2.25.06a1.27 1.27 0 0 1 0 2.54c-.74 0-1.52 0-2.35-.06-2.63-.1-6.24-.23-7.38.92a1.26 1.26 0 0 1-.89.37zM80 44.41a1.27 1.27 0 0 1-.9-.37c-1.14-1.14-4.75-1-7.38-.92-.83 0-1.61.06-2.35.06a1.27 1.27 0 1 1 0-2.54c.7 0 1.46 0 2.25-.06 3.44-.13 7.34-.27 9.27 1.66a1.27 1.27 0 0 1-.9 2.17zM63.95 73.58c-5.42 0-8.1-2.86-8.21-3a1.27 1.27 0 0 1 1.87-1.72C57.7 69 59.72 71 63.95 71s5.6-2 5.61-2a1.27 1.27 0 0 1 2.1 1.42c-.09.16-2.18 3.16-7.71 3.16z" fill="#6b1818" data-original="#6b1818"></path><path d="M83.87 79.54a22.74 22.74 0 0 0 5.4-9.1 8 8 0 0 0 3.08.59 12.74 12.74 0 0 0 8.74-3.95c4.39-4.39 5.25-10.67 1.92-14a7.65 7.65 0 0 0-6.8-1.93 11.28 11.28 0 0 0-1.68.41 95.85 95.85 0 0 0 1.79-15.78c0-5.46-3.56-13.36-10.64-19.12C76.78 6.13 49.13 3.25 45.53 3.25c-5.3 0-16.92 3.88-16.92 15.39a9.33 9.33 0 0 0 2.67 7.07 9.53 9.53 0 0 0 2.49 1.66A18.15 18.15 0 0 0 31.68 35c0 4.23 1 11 2 16.6-3.27-1.05-6.58-.6-8.68 1.48-3.33 3.33-2.47 9.61 1.92 14a13.32 13.32 0 0 0 7.2 3.84 10 10 0 0 0 1.55.12 7.92 7.92 0 0 0 2.88-.52 22.12 22.12 0 0 0 5.33 9 23.41 23.41 0 0 0 12.42 6.29v4.74a3.24 3.24 0 0 0-2.08.16 3 3 0 0 0-1.76 2.75 52.65 52.65 0 0 0-22.07 15.78 4.4 4.4 0 0 0 .11 5.57c6.33 7.37 21.31 9.94 33.52 9.94s27.89-3 33.49-10a4.38 4.38 0 0 0 0-5.44 52.61 52.61 0 0 0-21.94-15.8 3 3 0 0 0-1.76-2.82 3.26 3.26 0 0 0-2.28-.1v-4.77a23.3 23.3 0 0 0 12.34-6.28zm12.74-25.88a7.37 7.37 0 0 1 1.14-.09 4.78 4.78 0 0 1 3.47 1.3c2.34 2.34 1.48 7-1.92 10.41-2.94 2.94-6.83 4-9.34 2.68.2-.88.36-1.73.48-2.55 1.34-1.8 4.83-5.71 7.64-5.71a1.27 1.27 0 1 0 0-2.54c-2.72 0-5.38 2-7.27 3.94v-4.33a10.76 10.76 0 0 1 5.8-3.11zm-8.15-30.73c3.54 4.38 5.33 9.22 5.33 12.85a101 101 0 0 1-2.09 17.09q-.44.27-.86.58V41.82a26.69 26.69 0 0 0-3.38-13 12.2 12.2 0 0 0 1-5.89zM33 23.87a6.82 6.82 0 0 1-1.88-5.23c0-10.57 11.53-12.85 14.38-12.85 3.09 0 32.21 3 39.07 13.66a8.38 8.38 0 0 1 .7 7.9 85 85 0 0 0-17.15-1.53c-4.51 0-8.9.23-13.06.44-9.92.51-18.52.95-22.06-2.39zm1.5 44.55a10.77 10.77 0 0 1-5.8-3.13c-3.4-3.4-4.26-8.07-1.92-10.41a4.81 4.81 0 0 1 3.49-1.32 10.2 10.2 0 0 1 6.8 3.12V61.13c-1.84-1.89-4.45-3.91-7.15-3.91a1.27 1.27 0 1 0 0 2.54c2.79 0 6.19 3.89 7.48 5.69.11.85.27 1.74.47 2.66a5.9 5.9 0 0 1-3.37.31zm2.56-26.59v11.56l-.58-.4c-1.05-5.81-2.27-13.49-2.27-18a15.86 15.86 0 0 1 2-6.78 25 25 0 0 0 4.14.69 26.69 26.69 0 0 0-3.28 12.92zM55.24 93a.56.56 0 0 1 .23 0c.33 0 .8.22 1.2.92A20.66 20.66 0 0 0 61.75 99l-4.94 3.15c-.42-2.36-1.16-6.3-1.74-8.17-.07-.19-.21-.78.17-.98zm-1.06 28.58a66.06 66.06 0 0 1-7.62-1.37v-2.75h7.62zm8.57-20.08v20.7c-2.06 0-4.07-.14-6-.32v-5.66a1.27 1.27 0 0 0-1.3-1.22H45.29a1.27 1.27 0 0 0-1.29 1.22v3.33c-5.25-1.57-9.34-3.76-11.61-6.39a1.85 1.85 0 0 1 0-2.35A49.89 49.89 0 0 1 53 95.95c.75 3.08 1.65 8.43 1.66 8.49a1.27 1.27 0 0 0 1.93.86l6.2-4a1.23 1.23 0 0 0-.04.23zm1.27-4c-1.53-1.09-4.16-3.17-5.15-4.87v-6.42a42.89 42.89 0 0 0 5.16.3 41.38 41.38 0 0 0 5-.29v6.68A22.3 22.3 0 0 1 64 97.5zm17.45 22.8a63.44 63.44 0 0 1-7.62 1.38v-4.2h7.62zM75 96a49.85 49.85 0 0 1 20.47 14.88 1.87 1.87 0 0 1 0 2.29c-2.07 2.59-6.21 4.83-11.51 6.43v-3.39a1.27 1.27 0 0 0-1.22-1.21H72.59a1.27 1.27 0 0 0-1.27 1.27V122c-2 .17-4 .25-6 .25v-20.72a1.23 1.23 0 0 0 0-.18l6.2 4a1.27 1.27 0 0 0 1.93-.86c-.04-.11.84-5.39 1.55-8.49zm-2.25-3c.38.17.23.76.17.94-.58 1.87-1.32 5.81-1.74 8.17L66.29 99a20.65 20.65 0 0 0 5.07-5.08c.51-.92 1.14-1.02 1.43-.92zM64 84c-8.07 0-14.24-2.09-18.34-6.21-6.15-6.22-6.08-15.38-6.06-18.79V41.82a24.19 24.19 0 0 1 3.59-12.7c3.54.1 7.59-.1 12-.33 9.32-.48 19.85-1 29.95 1.13a24.17 24.17 0 0 1 3.13 11.91V58.7c0 3.13.12 12.65-6.23 19.05C78 81.88 71.9 84 64 84z" fill="#6b1818" data-original="#6b1818"></path></g><path fill="#663434" d="M91.68 51a1.27 1.27 0 0 0-1.55-.91l-4.66 1.22c-.75-4.45-4.68-7.15-10.64-7.15s-9.53 2.74-10.07 7.51h-1.59c-.53-4.77-4.17-7.48-10.07-7.48s-9.88 2.7-10.64 7.14L38 50.11a1.27 1.27 0 0 0-.66 2.45l5.06 1.36c.48 4.82 4.5 7.77 10.74 7.77 5.94 0 9.54-2.71 10.07-7.48h1.59c.53 4.77 4.13 7.48 10.07 7.48 6.23 0 10.25-2.95 10.74-7.76l5.21-1.36a1.27 1.27 0 0 0 .86-1.57zM53.1 59.15c-2.48 0-8.24-.61-8.24-6.21s5.77-6.22 8.24-6.22c5 0 7.61 2.09 7.61 6.22s-2.56 6.21-7.61 6.21zm21.73 0c-5 0-7.61-2.09-7.61-6.21s2.56-6.22 7.61-6.22c2.48 0 8.25.61 8.25 6.22s-5.77 6.21-8.25 6.21z" data-original="#663434"></path></g></g></svg>