<svg xmlns="http://www.w3.org/2000/svg" version="1.1" xmlns:xlink="http://www.w3.org/1999/xlink" xmlns:svgjs="http://svgjs.com/svgjs" width="512" height="512" x="0" y="0" viewBox="0 0 128 128" style="enable-background:new 0 0 512 512" xml:space="preserve" class=""><g><g data-name="Layer 10"><path fill="#f6a821" d="M36.12 58.11s-3.18-27.58-3.18-35.64S44 7.61 64 7.61s31.05 5.94 31.05 15.61-3.18 34.9-3.18 34.9z" data-original="#f6a821"></path><path fill="#349996" d="M63.95 89.3c-10.79 0-27.86 7.53-32.53 17.64-.62 1.34-.89 2.83.07 4 10.9 12.7 55 12.64 65.06 0 .89-1.12.64-2.58 0-3.86C91.3 96.4 74.73 89.3 63.95 89.3z" data-original="#349996"></path><ellipse cx="95.05" cy="58.11" fill="#ff9566" rx="9.99" ry="7.27" transform="rotate(-45 95.046 58.13)" data-original="#ff9566"></ellipse><ellipse cx="32.95" cy="58.11" fill="#ff9566" rx="7.27" ry="9.99" transform="rotate(-45 32.942 58.122)" data-original="#ff9566"></ellipse><path fill="#993434" d="M96.53 106.94c-2.46-5.33-8.37-9.94-15-13.11 0 0 11.58-13.3-17.58-13.3s-17.58 13.3-17.58 13.3c-6.61 3.17-12.52 7.78-15 13.11-.62 1.34-.89 2.83.07 4 3.94 4.59 12.23 7.52 21.67 8.78v-27C53.16 90 59.56 89.3 64 89.3s10.79.69 10.79 3.35v27c9.44-1.26 17.73-4.19 21.67-8.78.96-1.1.69-2.59.07-3.93z" data-original="#993434"></path><path fill="#ff9566" d="M74.07 91.31a7.24 7.24 0 0 0-3.14-1.12V73.64c0-3.49-3.49-6.35-7-6.35s-7 2.86-7 6.35v16.54a6.53 6.53 0 0 0-3 1.09c0 .39 0 7.87 10.06 7.87s10.12-7.46 10.08-7.83z" data-original="#ff9566"></path><path fill="#f7a379" d="M64 82.31c26.74 0 25.56-23.17 25.56-27V38.89c0-21-20.14-13.16-25.61-13.16s-25.62-7.4-25.62 13.16v16.62c0 4.64-1.07 26.8 25.67 26.8z" data-original="#f7a379"></path><path fill="#993434" d="M46.39 93.83c.9 1.43 2.88 2.55 2.88 6.27" data-original="#993434"></path><g fill="#6b1818"><path d="M89.28 67.5a8 8 0 0 0 3.08.6 12.74 12.74 0 0 0 8.74-3.95c4.39-4.39 5.25-10.67 1.92-14-2.13-2.13-5.47-2.54-8.75-1.41.92-8.21 2.06-19.63 2.06-25.53 0-5.07-3.15-16.88-32.32-16.88-22.33 0-32.32 8.1-32.32 16.14 0 5.07 1.21 17.51 2.14 26.31-3.32-1.17-6.69-.78-8.83 1.37-3.33 3.33-2.47 9.61 1.92 14a12.74 12.74 0 0 0 8.74 3.95 8 8 0 0 0 2.88-.52 22.13 22.13 0 0 0 5.33 9A21.06 21.06 0 0 0 50 80.87c-3.4 1.07-5.57 2.68-6.56 4.84-1.34 2.95 0 6 1.08 7.64-7 3.58-12 8.18-14.23 13.05-1.24 2.69-.54 4.38.26 5.32 3.88 4.52 14.28 9.94 33.86 9.94s29.16-5.42 33-9.94c.81-.94 1.51-2.62.26-5.32-2.25-4.87-7.27-9.47-14.23-13.05 1-1.67 2.42-4.7 1.08-7.64-1-2.19-3.23-3.8-6.69-4.87a21.19 21.19 0 0 0 6-4.23 22.74 22.74 0 0 0 5.45-9.11zm8.45-16.88a4.81 4.81 0 0 1 3.49 1.32c2.34 2.34 1.48 7-1.92 10.41-2.94 2.94-6.83 4-9.34 2.69.2-.88.36-1.74.48-2.56 1.34-1.8 4.83-5.71 7.64-5.71a1.27 1.27 0 1 0 0-2.54c-2.72 0-5.38 2-7.27 3.94v-4.33a10.25 10.25 0 0 1 6.92-3.21zM34.22 22.47c0-6.55 9.32-13.6 29.78-13.6 18.65 0 29.78 5.36 29.78 14.34 0 6.1-1.3 18.61-2.23 26.83-.24.15-.49.31-.72.48V38.89c0-5.9-1.57-10.22-4.66-12.83C81 21.72 73 23.07 67.74 24a28.11 28.11 0 0 1-3.79.5 29.2 29.2 0 0 1-3.7-.45c-5.34-.85-13.42-2.12-18.58 2.29-3.05 2.61-4.6 6.84-4.6 12.59v11.54l-.55-.36c-.94-8.78-2.3-22.43-2.3-27.64zM28.7 62.36c-3.4-3.4-4.26-8.07-1.92-10.41a4.81 4.81 0 0 1 3.49-1.32 10.2 10.2 0 0 1 6.8 3.12v4.38c-1.84-1.89-4.45-3.91-7.15-3.91a1.27 1.27 0 1 0 0 2.54c2.79 0 6.18 3.89 7.48 5.69.11.85.27 1.75.47 2.66-2.52 1.17-6.3.12-9.17-2.75zm42 29.08a7.26 7.26 0 0 1 2 .57 6.31 6.31 0 0 1-1.67 3.52c-1.5 1.56-3.87 2.36-7 2.36s-5.56-.8-7.07-2.37A6.47 6.47 0 0 1 55.29 92a6.47 6.47 0 0 1 1.86-.52 1.27 1.27 0 0 0 1.08-1.25v-7a42.19 42.19 0 0 0 5.77.38 40.63 40.63 0 0 0 5.66-.38v7a1.27 1.27 0 0 0 1.07 1.21zm-18.81 26.77c-9.14-1.41-16.18-4.35-19.44-8.14-.47-.54-.43-1.42.12-2.6 2-4.37 6.9-8.73 13.46-12l.21.25A5.92 5.92 0 0 1 48 100.1a1.27 1.27 0 0 0 2.54 0 8.35 8.35 0 0 0-2.38-6.1 8 8 0 0 1-.69-.88l-.07-.09v-.06s-2.92-3.43-1.63-6.24c.61-1.32 2.57-3.29 8.72-4.3l1.25.3V89c-2.19.67-3.81 1.8-3.81 3.65zm14 .9a83.1 83.1 0 0 1-11.42-.58V96.4c.16.21.32.43.51.64 2 2.24 5.06 3.38 9.11 3.38s7.08-1.13 9.07-3.35c.14-.16.27-.32.4-.48v22c-2.49.3-5.06.47-7.71.52zm16.33-32.36c1.19 2.61-1.2 5.71-1.57 6.18a1.26 1.26 0 0 0-.18.22 8 8 0 0 1-.69.88 8.35 8.35 0 0 0-2.39 6.07 1.27 1.27 0 0 0 2.54 0 5.92 5.92 0 0 1 1.78-4.42l.21-.26c6.56 3.32 11.45 7.67 13.47 12 .54 1.18.58 2.05.12 2.6-3.26 3.79-10.29 6.73-19.44 8.14V92.64c0-1.87-1.65-3-3.86-3.67v-6.23l1.22-.3c6.2 1.01 8.18 2.99 8.79 4.31zM64 81c-8.07 0-14.24-2-18.34-6.17-6.15-6.19-6.08-15.34-6.06-18.83V38.89c0-5 1.25-8.56 3.71-10.66 2.27-1.94 5.42-2.52 8.61-2.52a51.25 51.25 0 0 1 7.93.81 30.12 30.12 0 0 0 4.1.49 29 29 0 0 0 4.21-.53C73 25.65 80.29 24.42 84.53 28c2.5 2.11 3.76 5.77 3.76 10.9v16.87c0 3.13.12 12.65-6.23 19.05C78 79 71.9 81 64 81z" fill="#6b1818" data-original="#6b1818"></path><ellipse cx="53.16" cy="50.01" rx="3.51" ry="3.49" fill="#6b1818" data-original="#6b1818"></ellipse><ellipse cx="74.74" cy="50.01" rx="3.47" ry="3.45" fill="#6b1818" data-original="#6b1818"></ellipse><path d="M53.87 42a21.8 21.8 0 0 0 4.6.72 1.27 1.27 0 1 0 0-2.54 20.15 20.15 0 0 1-4-.66c-2.84-.65-5.77-1.32-7.49.39a1.27 1.27 0 0 0 1.79 1.8c.69-.71 3.13-.13 5.1.29zM73.46 39.55a20.15 20.15 0 0 1-4 .66 1.27 1.27 0 0 0 0 2.54A21.8 21.8 0 0 0 74 42c2-.45 4.41-1 5.13-.29a1.27 1.27 0 0 0 1.79-1.8c-1.69-1.67-4.62-1-7.46-.36zM71.33 65.78a1.28 1.28 0 0 0-1.76.3c-.06.08-1.52 2-5.62 2s-6.25-2.07-6.35-2.17a1.27 1.27 0 0 0-1.87 1.72c.11.12 2.8 3 8.21 3s7.63-3 7.71-3.13a1.26 1.26 0 0 0-.32-1.72z" fill="#6b1818" data-original="#6b1818"></path></g></g></g></svg>