<svg xmlns="http://www.w3.org/2000/svg" version="1.1" xmlns:xlink="http://www.w3.org/1999/xlink" xmlns:svgjs="http://svgjs.com/svgjs" width="512" height="512" x="0" y="0" viewBox="0 0 32 32" style="enable-background:new 0 0 512 512" xml:space="preserve" class=""><g><path d="m14.607 2.069-.555.998a.09.09 0 0 1-.063.046l-1.121.22a1.592 1.592 0 0 0-.861 2.648l.778.837a.09.09 0 0 1 .024.075l-.137 1.133a1.593 1.593 0 0 0 2.253 1.637l1.036-.481a.096.096 0 0 1 .078 0l1.036.481a1.593 1.593 0 0 0 2.253-1.637l-.137-1.133a.09.09 0 0 1 .024-.075l.778-.837a1.594 1.594 0 0 0-.861-2.648l-1.121-.22a.09.09 0 0 1-.063-.046l-.555-.998a1.595 1.595 0 0 0-2.786 0zM5.596 4.228l-.843.165a1.414 1.414 0 0 0-.764 2.351l.585.63-.103.853A1.413 1.413 0 0 0 6.47 9.68l.78-.362.78.362a1.414 1.414 0 0 0 1.999-1.453l-.103-.853.585-.63a1.412 1.412 0 0 0-.764-2.351l-.843-.165-.418-.751a1.415 1.415 0 0 0-2.472 0zM23.096 4.228l-.843.165a1.414 1.414 0 0 0-.764 2.351l.585.63-.103.853A1.413 1.413 0 0 0 23.97 9.68l.78-.362.78.362a1.414 1.414 0 0 0 1.999-1.453l-.103-.853.585-.63a1.412 1.412 0 0 0-.764-2.351l-.843-.165-.418-.751a1.415 1.415 0 0 0-2.472 0zM25.763 18.865v3.799a.75.75 0 0 0 1.5 0v-3.799a.75.75 0 0 0-1.5 0z" fill="#000000" data-original="#000000" class=""></path><path d="m18.305 23.668 8.033-3.703a1.932 1.932 0 0 0 0-3.509l-8.033-3.703a5.473 5.473 0 0 0-4.585 0l-8.036 3.703a1.93 1.93 0 0 0 0 3.509l8.036 3.703a5.48 5.48 0 0 0 4.585 0z" fill="#000000" data-original="#000000" class=""></path><path d="M7.935 22.654v2.462a5.636 5.636 0 0 0 5.634 5.634h4.883a5.636 5.636 0 0 0 5.634-5.634v-2.461l-5.153 2.375a6.979 6.979 0 0 1-5.841 0z" fill="#000000" data-original="#000000" class=""></path></g></svg>