<svg xmlns="http://www.w3.org/2000/svg" version="1.1" xmlns:xlink="http://www.w3.org/1999/xlink" xmlns:svgjs="http://svgjs.com/svgjs" width="512" height="512" x="0" y="0" viewBox="0 0 512 512" style="enable-background:new 0 0 512 512" xml:space="preserve"><g><path d="M256 90.25c-58.173 0-105.5 47.327-105.5 105.5s47.327 105.5 105.5 105.5 105.5-47.327 105.5-105.5S314.173 90.25 256 90.25zM271 256c0 8.284-6.716 15-15 15s-15-6.716-15-15v-60.25c0-8.284 6.716-15 15-15s15 6.716 15 15zm-15-105.5c-8.409 0-14.636-6.873-15-15-.363-8.101 7.154-15 15-15 8.409 0 14.636 6.873 15 15 .363 8.101-7.154 15-15 15z" fill="#000000" data-original="#000000"></path><path d="M256 0C148.063 0 60.25 87.813 60.25 195.75c0 36.622 9.999 76.022 29.719 117.106 15.484 32.258 36.997 65.692 63.943 99.374 45.609 57.012 90.592 94.716 92.485 96.293 2.782 2.318 6.192 3.477 9.603 3.477s6.821-1.159 9.603-3.477c1.893-1.577 46.876-39.282 92.485-96.293 26.946-33.682 48.459-67.116 63.942-99.374 19.721-41.084 29.72-80.484 29.72-117.106C451.75 87.813 363.937 0 256 0zm0 331.25c-74.715 0-135.5-60.785-135.5-135.5S181.285 60.25 256 60.25s135.5 60.785 135.5 135.5-60.785 135.5-135.5 135.5z" fill="#000000" data-original="#000000"></path></g></svg>