<svg xmlns="http://www.w3.org/2000/svg" version="1.1" xmlns:xlink="http://www.w3.org/1999/xlink" xmlns:svgjs="http://svgjs.com/svgjs" width="512" height="512" x="0" y="0" viewBox="0 0 512 512" style="enable-background:new 0 0 512 512" xml:space="preserve" class=""><g><path d="M256 38.5C136.07 38.5 38.5 136.07 38.5 256S136.07 473.5 256 473.5 473.5 375.93 473.5 256 375.93 38.5 256 38.5zm37.15 333.52c0 20.49-16.67 37.16-37.15 37.16-20.49 0-37.15-16.67-37.15-37.16V239.48c0-20.48 16.66-37.15 37.15-37.15 20.48 0 37.15 16.67 37.15 37.15zM256 177.13c-20.49 0-37.15-16.67-37.15-37.15 0-20.49 16.66-37.16 37.15-37.16 20.48 0 37.15 16.67 37.15 37.16 0 20.48-16.67 37.15-37.15 37.15z" fill="#000000" data-original="#000000" class=""></path></g></svg>