<svg xmlns="http://www.w3.org/2000/svg" version="1.1" xmlns:xlink="http://www.w3.org/1999/xlink" xmlns:svgjs="http://svgjs.com/svgjs" width="512" height="512" x="0" y="0" viewBox="0 0 512 512" style="enable-background:new 0 0 512 512" xml:space="preserve"><g><path fill-rule="evenodd" d="M345.457 137.159c25.943 0 47.803 23.01 54.454 54.376h-65.818c-8.304-12.556-18.831-22.704-30.824-29.483 10.353-15.274 25.416-24.893 42.188-24.893zm-230.543 17.133c-11.461 6.617-19.573 19.667-14.234 28.913l16.099 27.883c.931 1.613 2.85 2.365 4.829 1.222L392.804 55.735c1.981-1.144 2.287-3.181 1.356-4.793l-16.099-27.883c-5.386-9.329-20.695-8.746-32.156-2.129l-70.246 40.557c-2.732-5.086-6.162-12.706-9.315-17.21-4.783-7.532-14.729-9.925-22.538-5.731l-62.143 35.872c-8.22 4.746-11.026 15.293-6.283 23.507l9.292 16.094zm83.581-48.255-9.303-16.113c-.326-.564-.091-1.37.47-1.695l61.705-35.622c.452-.242 1.263-.236 1.542.264l8.915 16.602zM161.88 207.535h251.118l-24.467 266.394C387.376 486.468 376.724 496 363.861 496H181.569c-12.863 0-23.516-9.531-24.669-22.071L133.915 223.68zm197.148 57.386h-27.753l-13.656 148.681h27.753zm-72.303 0h-27.636l-.375 148.681h27.636zm-105.279 0 13.656 148.681h27.753l-13.656-148.681zm86.727-96.294c-17.66 0-33.783 8.653-46.066 22.908h92.132c-12.283-14.255-28.406-22.908-46.066-22.908z" clip-rule="evenodd" fill="#000000" data-original="#000000"></path></g></svg>